<svg width="1284" height="410" viewBox="0 0 1284 410" fill="none" xmlns="http://www.w3.org/2000/svg">
<path d="M0.00012207 0H1284V410H0.00012207V0Z" fill="#22AFFF"/>
<ellipse cx="354" cy="208" rx="171" ry="163" fill="white"/>
<ellipse cx="894" cy="205" rx="171" ry="163" fill="white"/>
<path d="M267.418 200L297.111 141.227V140.75H262.645V130.182H310.202V140.989L280.543 200H267.418ZM316.943 200.75C314.875 200.75 313.102 200.023 311.625 198.568C310.148 197.114 309.421 195.341 309.443 193.25C309.421 191.205 310.148 189.455 311.625 188C313.102 186.545 314.875 185.818 316.943 185.818C318.943 185.818 320.682 186.545 322.159 188C323.659 189.455 324.421 191.205 324.443 193.25C324.421 194.636 324.057 195.898 323.352 197.034C322.671 198.17 321.761 199.08 320.625 199.761C319.511 200.42 318.284 200.75 316.943 200.75ZM356.821 130.182V200H344.173V142.489H343.764L327.435 152.92V141.33L344.787 130.182H356.821ZM411.878 186.909V183.227C411.878 180.523 412.446 178.034 413.583 175.761C414.742 173.489 416.423 171.659 418.628 170.273C420.833 168.886 423.503 168.193 426.639 168.193C429.867 168.193 432.571 168.886 434.753 170.273C436.935 171.636 438.583 173.455 439.696 175.727C440.833 178 441.401 180.5 441.401 183.227V186.909C441.401 189.614 440.833 192.102 439.696 194.375C438.56 196.648 436.889 198.477 434.685 199.864C432.503 201.25 429.821 201.943 426.639 201.943C423.458 201.943 420.764 201.25 418.56 199.864C416.355 198.477 414.685 196.648 413.548 194.375C412.435 192.102 411.878 189.614 411.878 186.909ZM420.776 183.227V186.909C420.776 188.705 421.208 190.352 422.071 191.852C422.935 193.352 424.458 194.102 426.639 194.102C428.844 194.102 430.355 193.364 431.173 191.886C432.014 190.386 432.435 188.727 432.435 186.909V183.227C432.435 181.409 432.037 179.75 431.242 178.25C430.446 176.727 428.912 175.966 426.639 175.966C424.503 175.966 422.992 176.727 422.105 178.25C421.219 179.75 420.776 181.409 420.776 183.227ZM376.389 146.955V143.273C376.389 140.545 376.969 138.045 378.128 135.773C379.287 133.5 380.969 131.682 383.173 130.318C385.378 128.932 388.048 128.239 391.185 128.239C394.389 128.239 397.083 128.932 399.264 130.318C401.469 131.682 403.128 133.5 404.242 135.773C405.355 138.045 405.912 140.545 405.912 143.273V146.955C405.912 149.682 405.344 152.182 404.208 154.455C403.094 156.705 401.435 158.511 399.23 159.875C397.026 161.239 394.344 161.92 391.185 161.92C387.98 161.92 385.276 161.239 383.071 159.875C380.889 158.511 379.23 156.693 378.094 154.42C376.958 152.148 376.389 149.659 376.389 146.955ZM385.355 143.273V146.955C385.355 148.773 385.776 150.432 386.617 151.932C387.48 153.409 389.003 154.148 391.185 154.148C393.367 154.148 394.867 153.409 395.685 151.932C396.526 150.432 396.946 148.773 396.946 146.955V143.273C396.946 141.455 396.548 139.795 395.753 138.295C394.958 136.773 393.435 136.011 391.185 136.011C389.026 136.011 387.514 136.773 386.651 138.295C385.787 139.818 385.355 141.477 385.355 143.273ZM380.276 200L428.276 130.182H436.798L388.798 200H380.276Z" fill="#2C69A1"/>
<path d="M809.056 111.182V181H796.408V123.489H795.999L779.669 133.92V122.33L797.021 111.182H809.056ZM826.783 181V171.864L851.021 148.102C853.34 145.761 855.271 143.682 856.817 141.864C858.362 140.045 859.521 138.284 860.294 136.58C861.067 134.875 861.453 133.057 861.453 131.125C861.453 128.92 860.953 127.034 859.953 125.466C858.953 123.875 857.578 122.648 855.828 121.784C854.078 120.92 852.09 120.489 849.862 120.489C847.567 120.489 845.556 120.966 843.828 121.92C842.101 122.852 840.76 124.182 839.806 125.909C838.874 127.636 838.408 129.693 838.408 132.08H826.374C826.374 127.648 827.385 123.795 829.408 120.523C831.431 117.25 834.215 114.716 837.76 112.92C841.328 111.125 845.419 110.227 850.033 110.227C854.715 110.227 858.828 111.102 862.374 112.852C865.919 114.602 868.669 117 870.624 120.045C872.601 123.091 873.59 126.568 873.59 130.477C873.59 133.091 873.09 135.659 872.09 138.182C871.09 140.705 869.328 143.5 866.806 146.568C864.306 149.636 860.794 153.352 856.271 157.716L844.237 169.955V170.432H874.646V181H826.783ZM894.146 181.75C892.078 181.75 890.306 181.023 888.828 179.568C887.351 178.114 886.624 176.341 886.646 174.25C886.624 172.205 887.351 170.455 888.828 169C890.306 167.545 892.078 166.818 894.146 166.818C896.146 166.818 897.885 167.545 899.362 169C900.862 170.455 901.624 172.205 901.646 174.25C901.624 175.636 901.26 176.898 900.556 178.034C899.874 179.17 898.965 180.08 897.828 180.761C896.715 181.42 895.487 181.75 894.146 181.75ZM934.024 111.182V181H921.377V123.489H920.967L904.638 133.92V122.33L921.99 111.182H934.024ZM989.081 167.909V164.227C989.081 161.523 989.649 159.034 990.786 156.761C991.945 154.489 993.627 152.659 995.831 151.273C998.036 149.886 1000.71 149.193 1003.84 149.193C1007.07 149.193 1009.77 149.886 1011.96 151.273C1014.14 152.636 1015.79 154.455 1016.9 156.727C1018.04 159 1018.6 161.5 1018.6 164.227V167.909C1018.6 170.614 1018.04 173.102 1016.9 175.375C1015.76 177.648 1014.09 179.477 1011.89 180.864C1009.71 182.25 1007.02 182.943 1003.84 182.943C1000.66 182.943 997.967 182.25 995.763 180.864C993.558 179.477 991.888 177.648 990.752 175.375C989.638 173.102 989.081 170.614 989.081 167.909ZM997.979 164.227V167.909C997.979 169.705 998.411 171.352 999.274 172.852C1000.14 174.352 1001.66 175.102 1003.84 175.102C1006.05 175.102 1007.56 174.364 1008.38 172.886C1009.22 171.386 1009.64 169.727 1009.64 167.909V164.227C1009.64 162.409 1009.24 160.75 1008.44 159.25C1007.65 157.727 1006.12 156.966 1003.84 156.966C1001.71 156.966 1000.19 157.727 999.308 159.25C998.422 160.75 997.979 162.409 997.979 164.227ZM953.592 127.955V124.273C953.592 121.545 954.172 119.045 955.331 116.773C956.49 114.5 958.172 112.682 960.377 111.318C962.581 109.932 965.252 109.239 968.388 109.239C971.592 109.239 974.286 109.932 976.467 111.318C978.672 112.682 980.331 114.5 981.445 116.773C982.558 119.045 983.115 121.545 983.115 124.273V127.955C983.115 130.682 982.547 133.182 981.411 135.455C980.297 137.705 978.638 139.511 976.433 140.875C974.229 142.239 971.547 142.92 968.388 142.92C965.183 142.92 962.479 142.239 960.274 140.875C958.092 139.511 956.433 137.693 955.297 135.42C954.161 133.148 953.592 130.659 953.592 127.955ZM962.558 124.273V127.955C962.558 129.773 962.979 131.432 963.82 132.932C964.683 134.409 966.206 135.148 968.388 135.148C970.57 135.148 972.07 134.409 972.888 132.932C973.729 131.432 974.149 129.773 974.149 127.955V124.273C974.149 122.455 973.752 120.795 972.956 119.295C972.161 117.773 970.638 117.011 968.388 117.011C966.229 117.011 964.717 117.773 963.854 119.295C962.99 120.818 962.558 122.477 962.558 124.273ZM957.479 181L1005.48 111.182H1014L966.002 181H957.479Z" fill="#2C69A1"/>
<path d="M224.064 229.545H227.226V240.949C227.226 242.199 226.931 243.298 226.34 244.247C225.755 245.196 224.931 245.937 223.868 246.472C222.806 247 221.564 247.264 220.144 247.264C218.718 247.264 217.473 247 216.411 246.472C215.348 245.937 214.525 245.196 213.939 244.247C213.354 243.298 213.062 242.199 213.062 240.949V229.545H216.223V240.685C216.223 241.412 216.383 242.06 216.701 242.628C217.025 243.196 217.479 243.642 218.064 243.966C218.65 244.284 219.343 244.443 220.144 244.443C220.945 244.443 221.638 244.284 222.223 243.966C222.814 243.642 223.269 243.196 223.587 242.628C223.905 242.06 224.064 241.412 224.064 240.685V229.545ZM231.607 247.188C231.09 247.188 230.647 247.006 230.277 246.642C229.908 246.278 229.726 245.835 229.732 245.312C229.726 244.801 229.908 244.364 230.277 244C230.647 243.636 231.09 243.455 231.607 243.455C232.107 243.455 232.542 243.636 232.911 244C233.286 244.364 233.476 244.801 233.482 245.312C233.476 245.659 233.385 245.974 233.209 246.259C233.039 246.543 232.812 246.77 232.527 246.94C232.249 247.105 231.942 247.188 231.607 247.188ZM246.29 234.344C246.21 233.599 245.875 233.02 245.284 232.605C244.699 232.19 243.937 231.983 243 231.983C242.341 231.983 241.775 232.082 241.304 232.281C240.832 232.48 240.471 232.75 240.221 233.091C239.971 233.432 239.844 233.821 239.838 234.259C239.838 234.622 239.92 234.937 240.085 235.205C240.255 235.472 240.486 235.699 240.775 235.886C241.065 236.068 241.386 236.222 241.738 236.347C242.091 236.472 242.446 236.577 242.804 236.662L244.44 237.071C245.099 237.224 245.733 237.432 246.341 237.693C246.954 237.955 247.503 238.284 247.986 238.682C248.474 239.08 248.861 239.56 249.145 240.122C249.429 240.685 249.571 241.344 249.571 242.099C249.571 243.122 249.309 244.023 248.787 244.801C248.264 245.574 247.508 246.179 246.52 246.616C245.537 247.048 244.346 247.264 242.949 247.264C241.591 247.264 240.412 247.054 239.412 246.634C238.417 246.213 237.639 245.599 237.076 244.793C236.52 243.986 236.219 243.003 236.173 241.844H239.284C239.329 242.452 239.517 242.957 239.846 243.361C240.176 243.764 240.605 244.065 241.133 244.264C241.667 244.463 242.264 244.562 242.923 244.562C243.611 244.562 244.213 244.46 244.73 244.256C245.253 244.045 245.662 243.756 245.957 243.386C246.253 243.011 246.403 242.574 246.409 242.074C246.403 241.619 246.27 241.244 246.008 240.949C245.747 240.648 245.38 240.398 244.909 240.199C244.443 239.994 243.897 239.812 243.272 239.653L241.287 239.142C239.849 238.773 238.713 238.213 237.878 237.463C237.048 236.707 236.633 235.705 236.633 234.455C236.633 233.426 236.912 232.526 237.469 231.753C238.031 230.98 238.795 230.381 239.761 229.955C240.727 229.523 241.821 229.307 243.042 229.307C244.281 229.307 245.366 229.523 246.298 229.955C247.236 230.381 247.971 230.974 248.505 231.736C249.04 232.491 249.315 233.361 249.332 234.344H246.29ZM260.584 247H257.209L263.354 229.545H267.258L273.411 247H270.036L265.374 233.125H265.238L260.584 247ZM260.695 240.156H269.9V242.696H260.695V240.156ZM280.033 247.23C279.005 247.23 278.084 246.966 277.272 246.438C276.459 245.909 275.817 245.142 275.346 244.136C274.874 243.131 274.638 241.909 274.638 240.472C274.638 239.017 274.877 237.79 275.354 236.79C275.837 235.784 276.488 235.026 277.306 234.514C278.124 233.997 279.036 233.739 280.042 233.739C280.809 233.739 281.439 233.869 281.934 234.131C282.428 234.386 282.82 234.696 283.11 235.06C283.4 235.418 283.624 235.756 283.783 236.074H283.911V229.545H287.005V247H283.971V244.938H283.783C283.624 245.256 283.394 245.594 283.093 245.952C282.792 246.304 282.394 246.605 281.9 246.855C281.405 247.105 280.783 247.23 280.033 247.23ZM280.894 244.699C281.547 244.699 282.104 244.523 282.564 244.17C283.025 243.812 283.374 243.315 283.613 242.679C283.851 242.043 283.971 241.301 283.971 240.455C283.971 239.608 283.851 238.872 283.613 238.247C283.38 237.622 283.033 237.136 282.573 236.79C282.118 236.443 281.559 236.27 280.894 236.27C280.206 236.27 279.633 236.449 279.172 236.807C278.712 237.165 278.366 237.659 278.133 238.29C277.9 238.92 277.783 239.642 277.783 240.455C277.783 241.273 277.9 242.003 278.133 242.645C278.371 243.281 278.721 243.784 279.181 244.153C279.647 244.517 280.218 244.699 280.894 244.699ZM298.636 241.494V233.909H301.721V247H298.73V244.673H298.594C298.298 245.406 297.812 246.006 297.136 246.472C296.466 246.937 295.639 247.17 294.656 247.17C293.798 247.17 293.04 246.98 292.38 246.599C291.727 246.213 291.216 245.653 290.846 244.92C290.477 244.182 290.292 243.29 290.292 242.244V233.909H293.378V241.767C293.378 242.597 293.605 243.256 294.059 243.744C294.514 244.233 295.111 244.477 295.849 244.477C296.304 244.477 296.744 244.366 297.17 244.145C297.596 243.923 297.946 243.594 298.219 243.156C298.497 242.713 298.636 242.159 298.636 241.494ZM307.979 229.545V247H304.894V229.545H307.979ZM317.689 233.909V236.295H310.163V233.909H317.689ZM312.021 230.773H315.106V243.062C315.106 243.477 315.169 243.795 315.294 244.017C315.424 244.233 315.595 244.381 315.805 244.46C316.015 244.54 316.248 244.58 316.504 244.58C316.697 244.58 316.873 244.565 317.032 244.537C317.197 244.509 317.322 244.483 317.407 244.46L317.927 246.872C317.763 246.929 317.527 246.991 317.22 247.06C316.919 247.128 316.549 247.168 316.112 247.179C315.339 247.202 314.643 247.085 314.024 246.83C313.405 246.568 312.913 246.165 312.549 245.619C312.192 245.074 312.015 244.392 312.021 243.574V230.773ZM330.428 237.369L327.616 237.676C327.536 237.392 327.397 237.125 327.198 236.875C327.005 236.625 326.743 236.423 326.414 236.27C326.084 236.116 325.681 236.04 325.204 236.04C324.562 236.04 324.022 236.179 323.584 236.457C323.152 236.736 322.939 237.097 322.945 237.54C322.939 237.92 323.079 238.23 323.363 238.469C323.652 238.707 324.13 238.903 324.795 239.057L327.027 239.534C328.266 239.801 329.187 240.224 329.789 240.804C330.397 241.384 330.704 242.142 330.709 243.08C330.704 243.903 330.462 244.631 329.985 245.261C329.513 245.886 328.857 246.375 328.016 246.727C327.175 247.08 326.209 247.256 325.118 247.256C323.516 247.256 322.226 246.92 321.249 246.25C320.272 245.574 319.689 244.634 319.502 243.429L322.51 243.139C322.647 243.73 322.937 244.176 323.38 244.477C323.823 244.778 324.4 244.929 325.11 244.929C325.843 244.929 326.431 244.778 326.874 244.477C327.323 244.176 327.547 243.804 327.547 243.361C327.547 242.986 327.402 242.676 327.113 242.432C326.829 242.187 326.385 242 325.783 241.869L323.55 241.401C322.295 241.139 321.366 240.699 320.763 240.08C320.161 239.455 319.863 238.665 319.868 237.71C319.863 236.903 320.081 236.205 320.525 235.614C320.973 235.017 321.596 234.557 322.391 234.233C323.192 233.903 324.116 233.739 325.161 233.739C326.695 233.739 327.902 234.065 328.783 234.719C329.67 235.372 330.218 236.256 330.428 237.369ZM349.553 237.369L346.741 237.676C346.661 237.392 346.522 237.125 346.323 236.875C346.13 236.625 345.868 236.423 345.539 236.27C345.209 236.116 344.806 236.04 344.329 236.04C343.687 236.04 343.147 236.179 342.709 236.457C342.277 236.736 342.064 237.097 342.07 237.54C342.064 237.92 342.204 238.23 342.488 238.469C342.777 238.707 343.255 238.903 343.92 239.057L346.152 239.534C347.391 239.801 348.312 240.224 348.914 240.804C349.522 241.384 349.829 242.142 349.834 243.08C349.829 243.903 349.587 244.631 349.11 245.261C348.638 245.886 347.982 246.375 347.141 246.727C346.3 247.08 345.334 247.256 344.243 247.256C342.641 247.256 341.351 246.92 340.374 246.25C339.397 245.574 338.814 244.634 338.627 243.429L341.635 243.139C341.772 243.73 342.062 244.176 342.505 244.477C342.948 244.778 343.525 244.929 344.235 244.929C344.968 244.929 345.556 244.778 345.999 244.477C346.448 244.176 346.672 243.804 346.672 243.361C346.672 242.986 346.527 242.676 346.238 242.432C345.954 242.187 345.51 242 344.908 241.869L342.675 241.401C341.42 241.139 340.491 240.699 339.888 240.08C339.286 239.455 338.988 238.665 338.993 237.71C338.988 236.903 339.206 236.205 339.65 235.614C340.098 235.017 340.721 234.557 341.516 234.233C342.317 233.903 343.241 233.739 344.286 233.739C345.82 233.739 347.027 234.065 347.908 234.719C348.795 235.372 349.343 236.256 349.553 237.369ZM360.722 241.494V233.909H363.807V247H360.816V244.673H360.679C360.384 245.406 359.898 246.006 359.222 246.472C358.552 246.937 357.725 247.17 356.742 247.17C355.884 247.17 355.125 246.98 354.466 246.599C353.813 246.213 353.302 245.653 352.932 244.92C352.563 244.182 352.378 243.29 352.378 242.244V233.909H355.464V241.767C355.464 242.597 355.691 243.256 356.145 243.744C356.6 244.233 357.197 244.477 357.935 244.477C358.39 244.477 358.83 244.366 359.256 244.145C359.682 243.923 360.032 243.594 360.304 243.156C360.583 242.713 360.722 242.159 360.722 241.494ZM373.611 233.909V236.295H365.872V233.909H373.611ZM367.807 247V232.673C367.807 231.793 367.988 231.06 368.352 230.474C368.721 229.889 369.216 229.452 369.835 229.162C370.454 228.872 371.142 228.727 371.897 228.727C372.432 228.727 372.906 228.77 373.321 228.855C373.736 228.94 374.042 229.017 374.241 229.085L373.628 231.472C373.497 231.432 373.332 231.392 373.133 231.352C372.934 231.307 372.713 231.284 372.469 231.284C371.895 231.284 371.488 231.423 371.25 231.702C371.017 231.974 370.9 232.366 370.9 232.878V247H367.807ZM382.657 233.909V236.295H374.919V233.909H382.657ZM376.853 247V232.673C376.853 231.793 377.035 231.06 377.399 230.474C377.768 229.889 378.263 229.452 378.882 229.162C379.501 228.872 380.189 228.727 380.944 228.727C381.478 228.727 381.953 228.77 382.368 228.855C382.782 228.94 383.089 229.017 383.288 229.085L382.674 231.472C382.544 231.432 382.379 231.392 382.18 231.352C381.981 231.307 381.76 231.284 381.515 231.284C380.942 231.284 380.535 231.423 380.297 231.702C380.064 231.974 379.947 232.366 379.947 232.878V247H376.853ZM390.377 247.256C389.064 247.256 387.931 246.983 386.976 246.438C386.027 245.886 385.297 245.108 384.786 244.102C384.275 243.091 384.019 241.901 384.019 240.531C384.019 239.185 384.275 238.003 384.786 236.986C385.303 235.963 386.025 235.168 386.951 234.599C387.877 234.026 388.965 233.739 390.215 233.739C391.022 233.739 391.783 233.869 392.499 234.131C393.221 234.386 393.857 234.784 394.408 235.324C394.965 235.864 395.402 236.551 395.721 237.386C396.039 238.216 396.198 239.205 396.198 240.352V241.298H385.468V239.219H393.241C393.235 238.628 393.107 238.102 392.857 237.642C392.607 237.176 392.258 236.81 391.809 236.543C391.366 236.276 390.848 236.142 390.258 236.142C389.627 236.142 389.073 236.295 388.596 236.602C388.118 236.903 387.746 237.301 387.479 237.795C387.218 238.284 387.084 238.821 387.079 239.406V241.222C387.079 241.983 387.218 242.636 387.496 243.182C387.775 243.722 388.164 244.136 388.664 244.426C389.164 244.71 389.749 244.852 390.42 244.852C390.868 244.852 391.275 244.79 391.638 244.665C392.002 244.534 392.317 244.344 392.584 244.094C392.851 243.844 393.053 243.534 393.189 243.165L396.07 243.489C395.888 244.25 395.542 244.915 395.03 245.483C394.525 246.045 393.877 246.483 393.087 246.795C392.297 247.102 391.394 247.256 390.377 247.256ZM398.808 247V233.909H401.799V236.091H401.936C402.174 235.335 402.584 234.753 403.163 234.344C403.748 233.929 404.416 233.722 405.166 233.722C405.336 233.722 405.527 233.73 405.737 233.747C405.953 233.759 406.132 233.778 406.274 233.807V236.645C406.143 236.599 405.936 236.56 405.652 236.526C405.373 236.486 405.103 236.466 404.842 236.466C404.28 236.466 403.774 236.588 403.325 236.832C402.882 237.071 402.532 237.403 402.277 237.83C402.021 238.256 401.893 238.747 401.893 239.304V247H398.808ZM413.58 247.256C412.268 247.256 411.134 246.983 410.179 246.438C409.231 245.886 408.5 245.108 407.989 244.102C407.478 243.091 407.222 241.901 407.222 240.531C407.222 239.185 407.478 238.003 407.989 236.986C408.506 235.963 409.228 235.168 410.154 234.599C411.08 234.026 412.168 233.739 413.418 233.739C414.225 233.739 414.986 233.869 415.702 234.131C416.424 234.386 417.06 234.784 417.611 235.324C418.168 235.864 418.606 236.551 418.924 237.386C419.242 238.216 419.401 239.205 419.401 240.352V241.298H408.671V239.219H416.444C416.438 238.628 416.31 238.102 416.06 237.642C415.81 237.176 415.461 236.81 415.012 236.543C414.569 236.276 414.052 236.142 413.461 236.142C412.83 236.142 412.276 236.295 411.799 236.602C411.322 236.903 410.949 237.301 410.682 237.795C410.421 238.284 410.287 238.821 410.282 239.406V241.222C410.282 241.983 410.421 242.636 410.699 243.182C410.978 243.722 411.367 244.136 411.867 244.426C412.367 244.71 412.952 244.852 413.623 244.852C414.072 244.852 414.478 244.79 414.841 244.665C415.205 244.534 415.52 244.344 415.787 244.094C416.054 243.844 416.256 243.534 416.393 243.165L419.273 243.489C419.091 244.25 418.745 244.915 418.233 245.483C417.728 246.045 417.08 246.483 416.29 246.795C415.5 247.102 414.597 247.256 413.58 247.256ZM426.869 247.23C425.841 247.23 424.92 246.966 424.108 246.438C423.295 245.909 422.653 245.142 422.182 244.136C421.71 243.131 421.474 241.909 421.474 240.472C421.474 239.017 421.713 237.79 422.19 236.79C422.673 235.784 423.324 235.026 424.142 234.514C424.96 233.997 425.872 233.739 426.878 233.739C427.645 233.739 428.275 233.869 428.77 234.131C429.264 234.386 429.656 234.696 429.946 235.06C430.236 235.418 430.46 235.756 430.619 236.074H430.747V229.545H433.841V247H430.807V244.938H430.619C430.46 245.256 430.23 245.594 429.929 245.952C429.628 246.304 429.23 246.605 428.736 246.855C428.241 247.105 427.619 247.23 426.869 247.23ZM427.73 244.699C428.383 244.699 428.94 244.523 429.4 244.17C429.861 243.812 430.21 243.315 430.449 242.679C430.687 242.043 430.807 241.301 430.807 240.455C430.807 239.608 430.687 238.872 430.449 238.247C430.216 237.622 429.869 237.136 429.409 236.79C428.954 236.443 428.395 236.27 427.73 236.27C427.042 236.27 426.469 236.449 426.008 236.807C425.548 237.165 425.201 237.659 424.969 238.29C424.736 238.92 424.619 239.642 424.619 240.455C424.619 241.273 424.736 242.003 424.969 242.645C425.207 243.281 425.557 243.784 426.017 244.153C426.483 244.517 427.054 244.699 427.73 244.699ZM449.712 233.909V236.295H441.973V233.909H449.712ZM443.908 247V232.673C443.908 231.793 444.09 231.06 444.454 230.474C444.823 229.889 445.317 229.452 445.937 229.162C446.556 228.872 447.243 228.727 447.999 228.727C448.533 228.727 449.008 228.77 449.422 228.855C449.837 228.94 450.144 229.017 450.343 229.085L449.729 231.472C449.598 231.432 449.434 231.392 449.235 231.352C449.036 231.307 448.814 231.284 448.57 231.284C447.996 231.284 447.59 231.423 447.351 231.702C447.118 231.974 447.002 232.366 447.002 232.878V247H443.908ZM452.128 247V233.909H455.12V236.091H455.256C455.495 235.335 455.904 234.753 456.483 234.344C457.069 233.929 457.736 233.722 458.486 233.722C458.657 233.722 458.847 233.73 459.057 233.747C459.273 233.759 459.452 233.778 459.594 233.807V236.645C459.464 236.599 459.256 236.56 458.972 236.526C458.694 236.486 458.424 236.466 458.162 236.466C457.6 236.466 457.094 236.588 456.645 236.832C456.202 237.071 455.853 237.403 455.597 237.83C455.341 238.256 455.214 238.747 455.214 239.304V247H452.128ZM466.815 247.256C465.537 247.256 464.429 246.974 463.491 246.412C462.554 245.849 461.826 245.062 461.309 244.051C460.798 243.04 460.542 241.858 460.542 240.506C460.542 239.153 460.798 237.969 461.309 236.952C461.826 235.935 462.554 235.145 463.491 234.582C464.429 234.02 465.537 233.739 466.815 233.739C468.094 233.739 469.201 234.02 470.139 234.582C471.076 235.145 471.801 235.935 472.312 236.952C472.829 237.969 473.088 239.153 473.088 240.506C473.088 241.858 472.829 243.04 472.312 244.051C471.801 245.062 471.076 245.849 470.139 246.412C469.201 246.974 468.094 247.256 466.815 247.256ZM466.832 244.784C467.525 244.784 468.105 244.594 468.571 244.213C469.037 243.827 469.383 243.31 469.611 242.662C469.844 242.014 469.96 241.293 469.96 240.497C469.96 239.696 469.844 238.972 469.611 238.324C469.383 237.67 469.037 237.151 468.571 236.764C468.105 236.378 467.525 236.185 466.832 236.185C466.122 236.185 465.531 236.378 465.059 236.764C464.594 237.151 464.244 237.67 464.011 238.324C463.784 238.972 463.67 239.696 463.67 240.497C463.67 241.293 463.784 242.014 464.011 242.662C464.244 243.31 464.594 243.827 465.059 244.213C465.531 244.594 466.122 244.784 466.832 244.784ZM475.706 247V233.909H478.655V236.134H478.809C479.081 235.384 479.533 234.798 480.164 234.378C480.795 233.952 481.547 233.739 482.422 233.739C483.309 233.739 484.056 233.955 484.664 234.386C485.277 234.812 485.709 235.395 485.959 236.134H486.096C486.385 235.406 486.874 234.827 487.562 234.395C488.255 233.957 489.076 233.739 490.025 233.739C491.229 233.739 492.212 234.119 492.973 234.881C493.735 235.642 494.116 236.753 494.116 238.213V247H491.022V238.69C491.022 237.878 490.806 237.284 490.374 236.909C489.942 236.528 489.414 236.338 488.789 236.338C488.045 236.338 487.462 236.571 487.042 237.037C486.627 237.497 486.42 238.097 486.42 238.835V247H483.394V238.562C483.394 237.886 483.189 237.347 482.78 236.943C482.377 236.54 481.848 236.338 481.195 236.338C480.752 236.338 480.348 236.452 479.985 236.679C479.621 236.901 479.331 237.216 479.116 237.625C478.9 238.028 478.792 238.5 478.792 239.04V247H475.706ZM260.586 263.344C260.507 262.599 260.172 262.02 259.581 261.605C258.996 261.19 258.234 260.983 257.297 260.983C256.638 260.983 256.072 261.082 255.601 261.281C255.129 261.48 254.768 261.75 254.518 262.091C254.268 262.432 254.14 262.821 254.135 263.259C254.135 263.622 254.217 263.937 254.382 264.205C254.552 264.472 254.782 264.699 255.072 264.886C255.362 265.068 255.683 265.222 256.035 265.347C256.388 265.472 256.743 265.577 257.101 265.662L258.737 266.071C259.396 266.224 260.03 266.432 260.638 266.693C261.251 266.955 261.799 267.284 262.282 267.682C262.771 268.08 263.157 268.56 263.442 269.122C263.726 269.685 263.868 270.344 263.868 271.099C263.868 272.122 263.606 273.023 263.084 273.801C262.561 274.574 261.805 275.179 260.817 275.616C259.834 276.048 258.643 276.264 257.246 276.264C255.888 276.264 254.709 276.054 253.709 275.634C252.714 275.213 251.936 274.599 251.373 273.793C250.817 272.986 250.515 272.003 250.47 270.844H253.581C253.626 271.452 253.814 271.957 254.143 272.361C254.473 272.764 254.902 273.065 255.43 273.264C255.964 273.463 256.561 273.562 257.22 273.562C257.907 273.562 258.51 273.46 259.027 273.256C259.549 273.045 259.959 272.756 260.254 272.386C260.549 272.011 260.7 271.574 260.706 271.074C260.7 270.619 260.567 270.244 260.305 269.949C260.044 269.648 259.677 269.398 259.206 269.199C258.74 268.994 258.194 268.812 257.569 268.653L255.584 268.142C254.146 267.773 253.01 267.213 252.174 266.463C251.345 265.707 250.93 264.705 250.93 263.455C250.93 262.426 251.209 261.526 251.765 260.753C252.328 259.98 253.092 259.381 254.058 258.955C255.024 258.523 256.118 258.307 257.339 258.307C258.578 258.307 259.663 258.523 260.595 258.955C261.532 259.381 262.268 259.974 262.802 260.736C263.336 261.491 263.612 262.361 263.629 263.344H260.586ZM268.647 276H265.272L271.417 258.545H275.32L281.473 276H278.098L273.437 262.125H273.3L268.647 276ZM268.758 269.156H277.962V271.696H268.758V269.156ZM289.687 276H283.772V258.545H289.807C291.54 258.545 293.028 258.895 294.272 259.594C295.522 260.287 296.483 261.284 297.153 262.585C297.824 263.886 298.159 265.443 298.159 267.256C298.159 269.074 297.821 270.636 297.145 271.943C296.474 273.25 295.505 274.253 294.238 274.952C292.977 275.651 291.46 276 289.687 276ZM286.934 273.264H289.534C290.75 273.264 291.764 273.043 292.576 272.599C293.389 272.151 294 271.483 294.409 270.597C294.818 269.705 295.022 268.591 295.022 267.256C295.022 265.92 294.818 264.812 294.409 263.932C294 263.045 293.395 262.384 292.594 261.946C291.798 261.503 290.809 261.281 289.628 261.281H286.934V273.264ZM313.517 262.909V265.295H305.991V262.909H313.517ZM307.849 259.773H310.934V272.062C310.934 272.477 310.997 272.795 311.122 273.017C311.253 273.233 311.423 273.381 311.633 273.46C311.844 273.54 312.076 273.58 312.332 273.58C312.525 273.58 312.701 273.565 312.861 273.537C313.025 273.509 313.15 273.483 313.236 273.46L313.755 275.872C313.591 275.929 313.355 275.991 313.048 276.06C312.747 276.128 312.378 276.168 311.94 276.179C311.167 276.202 310.471 276.085 309.852 275.83C309.233 275.568 308.741 275.165 308.378 274.619C308.02 274.074 307.844 273.392 307.849 272.574V259.773ZM319.464 268.33V276H316.378V258.545H319.395V265.134H319.549C319.856 264.395 320.33 263.812 320.972 263.386C321.62 262.955 322.444 262.739 323.444 262.739C324.353 262.739 325.145 262.929 325.822 263.31C326.498 263.69 327.02 264.247 327.39 264.98C327.765 265.713 327.952 266.608 327.952 267.665V276H324.867V268.142C324.867 267.261 324.64 266.577 324.185 266.088C323.736 265.594 323.106 265.347 322.293 265.347C321.748 265.347 321.259 265.466 320.827 265.705C320.401 265.937 320.066 266.276 319.821 266.719C319.583 267.162 319.464 267.699 319.464 268.33ZM336.893 276.256C335.58 276.256 334.447 275.983 333.492 275.438C332.543 274.886 331.813 274.108 331.302 273.102C330.79 272.091 330.535 270.901 330.535 269.531C330.535 268.185 330.79 267.003 331.302 265.986C331.819 264.963 332.54 264.168 333.466 263.599C334.393 263.026 335.481 262.739 336.731 262.739C337.537 262.739 338.299 262.869 339.015 263.131C339.736 263.386 340.373 263.784 340.924 264.324C341.481 264.864 341.918 265.551 342.236 266.386C342.554 267.216 342.714 268.205 342.714 269.352V270.298H331.983V268.219H339.756C339.75 267.628 339.623 267.102 339.373 266.642C339.123 266.176 338.773 265.81 338.324 265.543C337.881 265.276 337.364 265.142 336.773 265.142C336.143 265.142 335.589 265.295 335.111 265.602C334.634 265.903 334.262 266.301 333.995 266.795C333.733 267.284 333.6 267.821 333.594 268.406V270.222C333.594 270.983 333.733 271.636 334.012 272.182C334.29 272.722 334.679 273.136 335.179 273.426C335.679 273.71 336.265 273.852 336.935 273.852C337.384 273.852 337.79 273.79 338.154 273.665C338.518 273.534 338.833 273.344 339.1 273.094C339.367 272.844 339.569 272.534 339.705 272.165L342.586 272.489C342.404 273.25 342.057 273.915 341.546 274.483C341.04 275.045 340.393 275.483 339.603 275.795C338.813 276.102 337.91 276.256 336.893 276.256ZM351.277 280.909V262.909H354.311V265.074H354.49C354.649 264.756 354.873 264.418 355.163 264.06C355.453 263.696 355.845 263.386 356.339 263.131C356.834 262.869 357.464 262.739 358.231 262.739C359.243 262.739 360.155 262.997 360.967 263.514C361.785 264.026 362.433 264.784 362.91 265.79C363.393 266.79 363.635 268.017 363.635 269.472C363.635 270.909 363.399 272.131 362.927 273.136C362.456 274.142 361.814 274.909 361.001 275.438C360.189 275.966 359.268 276.23 358.24 276.23C357.49 276.23 356.868 276.105 356.373 275.855C355.879 275.605 355.481 275.304 355.18 274.952C354.885 274.594 354.655 274.256 354.49 273.938H354.362V280.909H351.277ZM354.302 269.455C354.302 270.301 354.422 271.043 354.66 271.679C354.905 272.315 355.254 272.812 355.709 273.17C356.169 273.523 356.726 273.699 357.379 273.699C358.061 273.699 358.632 273.517 359.092 273.153C359.552 272.784 359.899 272.281 360.132 271.645C360.371 271.003 360.49 270.273 360.49 269.455C360.49 268.642 360.373 267.92 360.14 267.29C359.907 266.659 359.561 266.165 359.101 265.807C358.64 265.449 358.067 265.27 357.379 265.27C356.72 265.27 356.16 265.443 355.7 265.79C355.24 266.136 354.89 266.622 354.652 267.247C354.419 267.872 354.302 268.608 354.302 269.455ZM370.044 276.264C369.214 276.264 368.467 276.116 367.802 275.821C367.143 275.52 366.621 275.077 366.234 274.491C365.853 273.906 365.663 273.185 365.663 272.327C365.663 271.588 365.799 270.977 366.072 270.494C366.345 270.011 366.717 269.625 367.189 269.335C367.66 269.045 368.192 268.827 368.782 268.679C369.379 268.526 369.996 268.415 370.632 268.347C371.399 268.267 372.021 268.196 372.498 268.134C372.976 268.065 373.322 267.963 373.538 267.827C373.76 267.685 373.871 267.466 373.871 267.17V267.119C373.871 266.477 373.68 265.98 373.299 265.628C372.919 265.276 372.371 265.099 371.655 265.099C370.899 265.099 370.299 265.264 369.856 265.594C369.419 265.923 369.123 266.312 368.97 266.761L366.089 266.352C366.317 265.557 366.692 264.892 367.214 264.358C367.737 263.818 368.376 263.415 369.132 263.148C369.888 262.875 370.723 262.739 371.638 262.739C372.268 262.739 372.896 262.812 373.521 262.96C374.146 263.108 374.717 263.352 375.234 263.693C375.751 264.028 376.166 264.486 376.478 265.065C376.797 265.645 376.956 266.369 376.956 267.239V276H373.99V274.202H373.888C373.7 274.565 373.436 274.906 373.095 275.224C372.76 275.537 372.336 275.79 371.825 275.983C371.319 276.17 370.726 276.264 370.044 276.264ZM370.845 273.997C371.464 273.997 372.001 273.875 372.456 273.631C372.91 273.381 373.26 273.051 373.504 272.642C373.754 272.233 373.879 271.787 373.879 271.304V269.761C373.782 269.841 373.618 269.915 373.385 269.983C373.157 270.051 372.902 270.111 372.618 270.162C372.334 270.213 372.052 270.259 371.774 270.298C371.496 270.338 371.254 270.372 371.049 270.401C370.589 270.463 370.177 270.565 369.814 270.707C369.45 270.849 369.163 271.048 368.953 271.304C368.743 271.554 368.638 271.878 368.638 272.276C368.638 272.844 368.845 273.273 369.26 273.562C369.674 273.852 370.203 273.997 370.845 273.997ZM390.405 266.369L387.592 266.676C387.513 266.392 387.373 266.125 387.174 265.875C386.981 265.625 386.72 265.423 386.39 265.27C386.061 265.116 385.657 265.04 385.18 265.04C384.538 265.04 383.998 265.179 383.561 265.457C383.129 265.736 382.916 266.097 382.922 266.54C382.916 266.92 383.055 267.23 383.339 267.469C383.629 267.707 384.106 267.903 384.771 268.057L387.004 268.534C388.243 268.801 389.163 269.224 389.765 269.804C390.373 270.384 390.68 271.142 390.686 272.08C390.68 272.903 390.439 273.631 389.961 274.261C389.49 274.886 388.834 275.375 387.993 275.727C387.152 276.08 386.186 276.256 385.095 276.256C383.493 276.256 382.203 275.92 381.226 275.25C380.248 274.574 379.666 273.634 379.478 272.429L382.487 272.139C382.623 272.73 382.913 273.176 383.356 273.477C383.799 273.778 384.376 273.929 385.086 273.929C385.819 273.929 386.407 273.778 386.851 273.477C387.299 273.176 387.524 272.804 387.524 272.361C387.524 271.986 387.379 271.676 387.089 271.432C386.805 271.187 386.362 271 385.76 270.869L383.527 270.401C382.271 270.139 381.342 269.699 380.74 269.08C380.138 268.455 379.839 267.665 379.845 266.71C379.839 265.903 380.058 265.205 380.501 264.614C380.95 264.017 381.572 263.557 382.368 263.233C383.169 262.903 384.092 262.739 385.138 262.739C386.672 262.739 387.879 263.065 388.76 263.719C389.646 264.372 390.194 265.256 390.405 266.369ZM399.767 262.909V265.295H392.241V262.909H399.767ZM394.099 259.773H397.184V272.062C397.184 272.477 397.247 272.795 397.372 273.017C397.503 273.233 397.673 273.381 397.883 273.46C398.094 273.54 398.326 273.58 398.582 273.58C398.775 273.58 398.951 273.565 399.111 273.537C399.275 273.509 399.4 273.483 399.486 273.46L400.005 275.872C399.841 275.929 399.605 275.991 399.298 276.06C398.997 276.128 398.628 276.168 398.19 276.179C397.417 276.202 396.721 276.085 396.102 275.83C395.483 275.568 394.991 275.165 394.628 274.619C394.27 274.074 394.094 273.392 394.099 272.574V259.773ZM410.218 280.909C409.797 280.909 409.408 280.875 409.05 280.807C408.698 280.744 408.417 280.67 408.206 280.585L408.922 278.182C409.371 278.313 409.772 278.375 410.124 278.369C410.476 278.364 410.786 278.253 411.053 278.037C411.326 277.827 411.556 277.474 411.743 276.98L412.008 276.273L407.26 262.909H410.533L413.55 272.795H413.687L416.712 262.909H419.993L414.752 277.585C414.508 278.278 414.184 278.872 413.78 279.366C413.377 279.866 412.883 280.247 412.297 280.509C411.718 280.776 411.025 280.909 410.218 280.909ZM427.478 276.256C426.166 276.256 425.032 275.983 424.078 275.438C423.129 274.886 422.399 274.108 421.888 273.102C421.376 272.091 421.121 270.901 421.121 269.531C421.121 268.185 421.376 267.003 421.888 265.986C422.405 264.963 423.126 264.168 424.052 263.599C424.978 263.026 426.067 262.739 427.317 262.739C428.123 262.739 428.885 262.869 429.601 263.131C430.322 263.386 430.959 263.784 431.51 264.324C432.067 264.864 432.504 265.551 432.822 266.386C433.14 267.216 433.299 268.205 433.299 269.352V270.298H422.569V268.219H430.342C430.336 267.628 430.209 267.102 429.959 266.642C429.709 266.176 429.359 265.81 428.91 265.543C428.467 265.276 427.95 265.142 427.359 265.142C426.728 265.142 426.174 265.295 425.697 265.602C425.22 265.903 424.848 266.301 424.581 266.795C424.319 267.284 424.186 267.821 424.18 268.406V270.222C424.18 270.983 424.319 271.636 424.598 272.182C424.876 272.722 425.265 273.136 425.765 273.426C426.265 273.71 426.851 273.852 427.521 273.852C427.97 273.852 428.376 273.79 428.74 273.665C429.103 273.534 429.419 273.344 429.686 273.094C429.953 272.844 430.155 272.534 430.291 272.165L433.172 272.489C432.99 273.25 432.643 273.915 432.132 274.483C431.626 275.045 430.978 275.483 430.189 275.795C429.399 276.102 428.496 276.256 427.478 276.256ZM439.677 276.264C438.847 276.264 438.1 276.116 437.435 275.821C436.776 275.52 436.253 275.077 435.867 274.491C435.486 273.906 435.296 273.185 435.296 272.327C435.296 271.588 435.432 270.977 435.705 270.494C435.978 270.011 436.35 269.625 436.821 269.335C437.293 269.045 437.824 268.827 438.415 268.679C439.012 268.526 439.628 268.415 440.265 268.347C441.032 268.267 441.654 268.196 442.131 268.134C442.608 268.065 442.955 267.963 443.171 267.827C443.393 267.685 443.503 267.466 443.503 267.17V267.119C443.503 266.477 443.313 265.98 442.932 265.628C442.552 265.276 442.003 265.099 441.287 265.099C440.532 265.099 439.932 265.264 439.489 265.594C439.052 265.923 438.756 266.312 438.603 266.761L435.722 266.352C435.949 265.557 436.324 264.892 436.847 264.358C437.37 263.818 438.009 263.415 438.765 263.148C439.52 262.875 440.356 262.739 441.27 262.739C441.901 262.739 442.529 262.812 443.154 262.96C443.779 263.108 444.35 263.352 444.867 263.693C445.384 264.028 445.799 264.486 446.111 265.065C446.429 265.645 446.589 266.369 446.589 267.239V276H443.623V274.202H443.52C443.333 274.565 443.069 274.906 442.728 275.224C442.393 275.537 441.969 275.79 441.458 275.983C440.952 276.17 440.358 276.264 439.677 276.264ZM440.478 273.997C441.097 273.997 441.634 273.875 442.089 273.631C442.543 273.381 442.893 273.051 443.137 272.642C443.387 272.233 443.512 271.787 443.512 271.304V269.761C443.415 269.841 443.25 269.915 443.018 269.983C442.79 270.051 442.535 270.111 442.25 270.162C441.966 270.213 441.685 270.259 441.407 270.298C441.128 270.338 440.887 270.372 440.682 270.401C440.222 270.463 439.81 270.565 439.446 270.707C439.083 270.849 438.796 271.048 438.586 271.304C438.375 271.554 438.27 271.878 438.27 272.276C438.27 272.844 438.478 273.273 438.893 273.562C439.307 273.852 439.836 273.997 440.478 273.997ZM449.691 276V262.909H452.682V265.091H452.819C453.057 264.335 453.466 263.753 454.046 263.344C454.631 262.929 455.299 262.722 456.049 262.722C456.219 262.722 456.41 262.73 456.62 262.747C456.836 262.759 457.015 262.778 457.157 262.807V265.645C457.026 265.599 456.819 265.56 456.535 265.526C456.256 265.486 455.986 265.466 455.725 265.466C455.162 265.466 454.657 265.588 454.208 265.832C453.765 266.071 453.415 266.403 453.16 266.83C452.904 267.256 452.776 267.747 452.776 268.304V276H449.691Z" fill="#2C69A1"/>
<path d="M757.389 208.545H760.551V219.949C760.551 221.199 760.255 222.298 759.664 223.247C759.079 224.196 758.255 224.937 757.193 225.472C756.13 226 754.889 226.264 753.468 226.264C752.042 226.264 750.798 226 749.735 225.472C748.673 224.937 747.849 224.196 747.264 223.247C746.678 222.298 746.386 221.199 746.386 219.949V208.545H749.548V219.685C749.548 220.412 749.707 221.06 750.025 221.628C750.349 222.196 750.803 222.642 751.389 222.966C751.974 223.284 752.667 223.443 753.468 223.443C754.269 223.443 754.962 223.284 755.548 222.966C756.139 222.642 756.593 222.196 756.911 221.628C757.23 221.06 757.389 220.412 757.389 219.685V208.545ZM764.931 226.188C764.414 226.188 763.971 226.006 763.602 225.642C763.232 225.278 763.051 224.835 763.056 224.312C763.051 223.801 763.232 223.364 763.602 223C763.971 222.636 764.414 222.455 764.931 222.455C765.431 222.455 765.866 222.636 766.235 223C766.61 223.364 766.801 223.801 766.806 224.312C766.801 224.659 766.71 224.974 766.534 225.259C766.363 225.543 766.136 225.77 765.852 225.94C765.573 226.105 765.266 226.188 764.931 226.188ZM779.614 213.344C779.534 212.599 779.199 212.02 778.608 211.605C778.023 211.19 777.261 210.983 776.324 210.983C775.665 210.983 775.1 211.082 774.628 211.281C774.156 211.48 773.796 211.75 773.546 212.091C773.296 212.432 773.168 212.821 773.162 213.259C773.162 213.622 773.244 213.937 773.409 214.205C773.58 214.472 773.81 214.699 774.1 214.886C774.389 215.068 774.71 215.222 775.063 215.347C775.415 215.472 775.77 215.577 776.128 215.662L777.764 216.071C778.423 216.224 779.057 216.432 779.665 216.693C780.279 216.955 780.827 217.284 781.31 217.682C781.798 218.08 782.185 218.56 782.469 219.122C782.753 219.685 782.895 220.344 782.895 221.099C782.895 222.122 782.634 223.023 782.111 223.801C781.588 224.574 780.833 225.179 779.844 225.616C778.861 226.048 777.671 226.264 776.273 226.264C774.915 226.264 773.736 226.054 772.736 225.634C771.742 225.213 770.963 224.599 770.401 223.793C769.844 222.986 769.543 222.003 769.497 220.844H772.608C772.654 221.452 772.841 221.957 773.171 222.361C773.5 222.764 773.929 223.065 774.458 223.264C774.992 223.463 775.588 223.562 776.247 223.562C776.935 223.562 777.537 223.46 778.054 223.256C778.577 223.045 778.986 222.756 779.281 222.386C779.577 222.011 779.727 221.574 779.733 221.074C779.727 220.619 779.594 220.244 779.333 219.949C779.071 219.648 778.705 219.398 778.233 219.199C777.767 218.994 777.222 218.812 776.597 218.653L774.611 218.142C773.173 217.773 772.037 217.213 771.202 216.463C770.372 215.707 769.958 214.705 769.958 213.455C769.958 212.426 770.236 211.526 770.793 210.753C771.355 209.98 772.119 209.381 773.085 208.955C774.051 208.523 775.145 208.307 776.367 208.307C777.605 208.307 778.69 208.523 779.622 208.955C780.56 209.381 781.296 209.974 781.83 210.736C782.364 211.491 782.639 212.361 782.656 213.344H779.614ZM793.909 226H790.534L796.678 208.545H800.582L806.735 226H803.36L798.698 212.125H798.562L793.909 226ZM794.019 219.156H803.224V221.696H794.019V219.156ZM813.357 226.23C812.329 226.23 811.409 225.966 810.596 225.438C809.784 224.909 809.141 224.142 808.67 223.136C808.198 222.131 807.962 220.909 807.962 219.472C807.962 218.017 808.201 216.79 808.678 215.79C809.161 214.784 809.812 214.026 810.63 213.514C811.448 212.997 812.36 212.739 813.366 212.739C814.133 212.739 814.764 212.869 815.258 213.131C815.752 213.386 816.144 213.696 816.434 214.06C816.724 214.418 816.948 214.756 817.107 215.074H817.235V208.545H820.329V226H817.295V223.938H817.107C816.948 224.256 816.718 224.594 816.417 224.952C816.116 225.304 815.718 225.605 815.224 225.855C814.73 226.105 814.107 226.23 813.357 226.23ZM814.218 223.699C814.872 223.699 815.428 223.523 815.889 223.17C816.349 222.812 816.698 222.315 816.937 221.679C817.176 221.043 817.295 220.301 817.295 219.455C817.295 218.608 817.176 217.872 816.937 217.247C816.704 216.622 816.357 216.136 815.897 215.79C815.443 215.443 814.883 215.27 814.218 215.27C813.531 215.27 812.957 215.449 812.497 215.807C812.036 216.165 811.69 216.659 811.457 217.29C811.224 217.92 811.107 218.642 811.107 219.455C811.107 220.273 811.224 221.003 811.457 221.645C811.695 222.281 812.045 222.784 812.505 223.153C812.971 223.517 813.542 223.699 814.218 223.699ZM831.96 220.494V212.909H835.046V226H832.054V223.673H831.918C831.622 224.406 831.136 225.006 830.46 225.472C829.79 225.937 828.963 226.17 827.98 226.17C827.122 226.17 826.364 225.98 825.705 225.599C825.051 225.213 824.54 224.653 824.171 223.92C823.801 223.182 823.617 222.29 823.617 221.244V212.909H826.702V220.767C826.702 221.597 826.929 222.256 827.384 222.744C827.838 223.233 828.435 223.477 829.173 223.477C829.628 223.477 830.068 223.366 830.494 223.145C830.921 222.923 831.27 222.594 831.543 222.156C831.821 221.713 831.96 221.159 831.96 220.494ZM841.303 208.545V226H838.218V208.545H841.303ZM851.013 212.909V215.295H843.487V212.909H851.013ZM845.345 209.773H848.431V222.062C848.431 222.477 848.493 222.795 848.618 223.017C848.749 223.233 848.919 223.381 849.129 223.46C849.34 223.54 849.573 223.58 849.828 223.58C850.021 223.58 850.198 223.565 850.357 223.537C850.521 223.509 850.646 223.483 850.732 223.46L851.252 225.872C851.087 225.929 850.851 225.991 850.544 226.06C850.243 226.128 849.874 226.168 849.436 226.179C848.663 226.202 847.967 226.085 847.348 225.83C846.729 225.568 846.237 225.165 845.874 224.619C845.516 224.074 845.34 223.392 845.345 222.574V209.773ZM863.752 216.369L860.94 216.676C860.86 216.392 860.721 216.125 860.522 215.875C860.329 215.625 860.068 215.423 859.738 215.27C859.409 215.116 859.005 215.04 858.528 215.04C857.886 215.04 857.346 215.179 856.909 215.457C856.477 215.736 856.264 216.097 856.269 216.54C856.264 216.92 856.403 217.23 856.687 217.469C856.977 217.707 857.454 217.903 858.119 218.057L860.352 218.534C861.59 218.801 862.511 219.224 863.113 219.804C863.721 220.384 864.028 221.142 864.034 222.08C864.028 222.903 863.786 223.631 863.309 224.261C862.837 224.886 862.181 225.375 861.34 225.727C860.499 226.08 859.534 226.256 858.443 226.256C856.84 226.256 855.551 225.92 854.573 225.25C853.596 224.574 853.014 223.634 852.826 222.429L855.835 222.139C855.971 222.73 856.261 223.176 856.704 223.477C857.147 223.778 857.724 223.929 858.434 223.929C859.167 223.929 859.755 223.778 860.198 223.477C860.647 223.176 860.872 222.804 860.872 222.361C860.872 221.986 860.727 221.676 860.437 221.432C860.153 221.187 859.71 221 859.107 220.869L856.874 220.401C855.619 220.139 854.69 219.699 854.087 219.08C853.485 218.455 853.187 217.665 853.193 216.71C853.187 215.903 853.406 215.205 853.849 214.614C854.298 214.017 854.92 213.557 855.715 213.233C856.516 212.903 857.44 212.739 858.485 212.739C860.019 212.739 861.227 213.065 862.107 213.719C862.994 214.372 863.542 215.256 863.752 216.369ZM878.326 226.256C877.014 226.256 875.88 225.983 874.926 225.438C873.977 224.886 873.247 224.108 872.735 223.102C872.224 222.091 871.968 220.901 871.968 219.531C871.968 218.185 872.224 217.003 872.735 215.986C873.252 214.963 873.974 214.168 874.9 213.599C875.826 213.026 876.914 212.739 878.164 212.739C878.971 212.739 879.732 212.869 880.448 213.131C881.17 213.386 881.806 213.784 882.357 214.324C882.914 214.864 883.352 215.551 883.67 216.386C883.988 217.216 884.147 218.205 884.147 219.352V220.298H873.417V218.219H881.19C881.184 217.628 881.056 217.102 880.806 216.642C880.556 216.176 880.207 215.81 879.758 215.543C879.315 215.276 878.798 215.142 878.207 215.142C877.576 215.142 877.022 215.295 876.545 215.602C876.068 215.903 875.695 216.301 875.428 216.795C875.167 217.284 875.034 217.821 875.028 218.406V220.222C875.028 220.983 875.167 221.636 875.445 222.182C875.724 222.722 876.113 223.136 876.613 223.426C877.113 223.71 877.698 223.852 878.369 223.852C878.818 223.852 879.224 223.79 879.587 223.665C879.951 223.534 880.266 223.344 880.534 223.094C880.801 222.844 881.002 222.534 881.139 222.165L884.019 222.489C883.837 223.25 883.491 223.915 882.98 224.483C882.474 225.045 881.826 225.483 881.036 225.795C880.247 226.102 879.343 226.256 878.326 226.256ZM888.999 212.909L891.641 217.741L894.325 212.909H897.59L893.644 219.455L897.658 226H894.411L891.641 221.287L888.896 226H885.624L889.612 219.455L885.726 212.909H888.999ZM899.976 230.909V212.909H903.01V215.074H903.189C903.348 214.756 903.573 214.418 903.862 214.06C904.152 213.696 904.544 213.386 905.038 213.131C905.533 212.869 906.163 212.739 906.931 212.739C907.942 212.739 908.854 212.997 909.666 213.514C910.484 214.026 911.132 214.784 911.609 215.79C912.092 216.79 912.334 218.017 912.334 219.472C912.334 220.909 912.098 222.131 911.627 223.136C911.155 224.142 910.513 224.909 909.7 225.438C908.888 225.966 907.967 226.23 906.939 226.23C906.189 226.23 905.567 226.105 905.073 225.855C904.578 225.605 904.181 225.304 903.879 224.952C903.584 224.594 903.354 224.256 903.189 223.938H903.061V230.909H899.976ZM903.002 219.455C903.002 220.301 903.121 221.043 903.359 221.679C903.604 222.315 903.953 222.812 904.408 223.17C904.868 223.523 905.425 223.699 906.078 223.699C906.76 223.699 907.331 223.517 907.791 223.153C908.252 222.784 908.598 222.281 908.831 221.645C909.07 221.003 909.189 220.273 909.189 219.455C909.189 218.642 909.073 217.92 908.84 217.29C908.607 216.659 908.26 216.165 907.8 215.807C907.34 215.449 906.766 215.27 906.078 215.27C905.419 215.27 904.859 215.443 904.399 215.79C903.939 216.136 903.59 216.622 903.351 217.247C903.118 217.872 903.002 218.608 903.002 219.455ZM920.771 226.256C919.459 226.256 918.325 225.983 917.371 225.438C916.422 224.886 915.692 224.108 915.181 223.102C914.669 222.091 914.413 220.901 914.413 219.531C914.413 218.185 914.669 217.003 915.181 215.986C915.698 214.963 916.419 214.168 917.345 213.599C918.271 213.026 919.359 212.739 920.609 212.739C921.416 212.739 922.178 212.869 922.894 213.131C923.615 213.386 924.252 213.784 924.803 214.324C925.359 214.864 925.797 215.551 926.115 216.386C926.433 217.216 926.592 218.205 926.592 219.352V220.298H915.862V218.219H923.635C923.629 217.628 923.502 217.102 923.252 216.642C923.002 216.176 922.652 215.81 922.203 215.543C921.76 215.276 921.243 215.142 920.652 215.142C920.021 215.142 919.467 215.295 918.99 215.602C918.513 215.903 918.141 216.301 917.874 216.795C917.612 217.284 917.479 217.821 917.473 218.406V220.222C917.473 220.983 917.612 221.636 917.891 222.182C918.169 222.722 918.558 223.136 919.058 223.426C919.558 223.71 920.144 223.852 920.814 223.852C921.263 223.852 921.669 223.79 922.033 223.665C922.396 223.534 922.712 223.344 922.979 223.094C923.246 222.844 923.448 222.534 923.584 222.165L926.465 222.489C926.283 223.25 925.936 223.915 925.425 224.483C924.919 225.045 924.271 225.483 923.482 225.795C922.692 226.102 921.788 226.256 920.771 226.256ZM929.203 226V212.909H932.194V215.091H932.33C932.569 214.335 932.978 213.753 933.558 213.344C934.143 212.929 934.81 212.722 935.56 212.722C935.731 212.722 935.921 212.73 936.132 212.747C936.347 212.759 936.526 212.778 936.668 212.807V215.645C936.538 215.599 936.33 215.56 936.046 215.526C935.768 215.486 935.498 215.466 935.237 215.466C934.674 215.466 934.168 215.588 933.72 215.832C933.276 216.071 932.927 216.403 932.671 216.83C932.416 217.256 932.288 217.747 932.288 218.304V226H929.203ZM938.718 226V212.909H941.803V226H938.718ZM940.269 211.051C939.781 211.051 939.36 210.889 939.008 210.565C938.656 210.236 938.48 209.841 938.48 209.381C938.48 208.915 938.656 208.52 939.008 208.196C939.36 207.866 939.781 207.702 940.269 207.702C940.764 207.702 941.184 207.866 941.531 208.196C941.883 208.52 942.059 208.915 942.059 209.381C942.059 209.841 941.883 210.236 941.531 210.565C941.184 210.889 940.764 211.051 940.269 211.051ZM950.771 226.256C949.459 226.256 948.325 225.983 947.371 225.438C946.422 224.886 945.692 224.108 945.181 223.102C944.669 222.091 944.413 220.901 944.413 219.531C944.413 218.185 944.669 217.003 945.181 215.986C945.698 214.963 946.419 214.168 947.345 213.599C948.271 213.026 949.359 212.739 950.609 212.739C951.416 212.739 952.178 212.869 952.894 213.131C953.615 213.386 954.252 213.784 954.803 214.324C955.359 214.864 955.797 215.551 956.115 216.386C956.433 217.216 956.592 218.205 956.592 219.352V220.298H945.862V218.219H953.635C953.629 217.628 953.502 217.102 953.252 216.642C953.002 216.176 952.652 215.81 952.203 215.543C951.76 215.276 951.243 215.142 950.652 215.142C950.021 215.142 949.467 215.295 948.99 215.602C948.513 215.903 948.141 216.301 947.874 216.795C947.612 217.284 947.479 217.821 947.473 218.406V220.222C947.473 220.983 947.612 221.636 947.891 222.182C948.169 222.722 948.558 223.136 949.058 223.426C949.558 223.71 950.144 223.852 950.814 223.852C951.263 223.852 951.669 223.79 952.033 223.665C952.396 223.534 952.712 223.344 952.979 223.094C953.246 222.844 953.448 222.534 953.584 222.165L956.465 222.489C956.283 223.25 955.936 223.915 955.425 224.483C954.919 225.045 954.271 225.483 953.482 225.795C952.692 226.102 951.788 226.256 950.771 226.256ZM962.288 218.33V226H959.203V212.909H962.151V215.134H962.305C962.606 214.401 963.086 213.818 963.745 213.386C964.41 212.955 965.231 212.739 966.208 212.739C967.112 212.739 967.899 212.932 968.569 213.318C969.245 213.705 969.768 214.264 970.137 214.997C970.512 215.73 970.697 216.619 970.691 217.665V226H967.606V218.142C967.606 217.267 967.379 216.582 966.924 216.088C966.475 215.594 965.853 215.347 965.058 215.347C964.518 215.347 964.038 215.466 963.617 215.705C963.203 215.937 962.876 216.276 962.637 216.719C962.404 217.162 962.288 217.699 962.288 218.33ZM979.538 226.256C978.231 226.256 977.109 225.969 976.171 225.395C975.239 224.821 974.521 224.028 974.015 223.017C973.515 222 973.265 220.83 973.265 219.506C973.265 218.176 973.521 217.003 974.032 215.986C974.543 214.963 975.265 214.168 976.197 213.599C977.134 213.026 978.242 212.739 979.521 212.739C980.583 212.739 981.524 212.935 982.342 213.327C983.166 213.713 983.822 214.261 984.31 214.972C984.799 215.676 985.078 216.5 985.146 217.443H982.197C982.078 216.812 981.793 216.287 981.345 215.866C980.901 215.44 980.308 215.227 979.563 215.227C978.933 215.227 978.379 215.398 977.901 215.739C977.424 216.074 977.052 216.557 976.785 217.188C976.524 217.818 976.393 218.574 976.393 219.455C976.393 220.347 976.524 221.114 976.785 221.756C977.046 222.392 977.413 222.884 977.884 223.23C978.362 223.571 978.921 223.741 979.563 223.741C980.018 223.741 980.424 223.656 980.782 223.486C981.146 223.31 981.45 223.057 981.694 222.727C981.938 222.398 982.106 221.997 982.197 221.526H985.146C985.072 222.452 984.799 223.273 984.328 223.989C983.856 224.699 983.214 225.256 982.401 225.659C981.589 226.057 980.634 226.256 979.538 226.256ZM993.475 226.256C992.162 226.256 991.029 225.983 990.074 225.438C989.125 224.886 988.395 224.108 987.884 223.102C987.372 222.091 987.117 220.901 987.117 219.531C987.117 218.185 987.372 217.003 987.884 215.986C988.401 214.963 989.122 214.168 990.048 213.599C990.975 213.026 992.063 212.739 993.313 212.739C994.119 212.739 994.881 212.869 995.597 213.131C996.318 213.386 996.955 213.784 997.506 214.324C998.063 214.864 998.5 215.551 998.818 216.386C999.136 217.216 999.296 218.205 999.296 219.352V220.298H988.565V218.219H996.338C996.333 217.628 996.205 217.102 995.955 216.642C995.705 216.176 995.355 215.81 994.906 215.543C994.463 215.276 993.946 215.142 993.355 215.142C992.725 215.142 992.171 215.295 991.693 215.602C991.216 215.903 990.844 216.301 990.577 216.795C990.315 217.284 990.182 217.821 990.176 218.406V220.222C990.176 220.983 990.315 221.636 990.594 222.182C990.872 222.722 991.261 223.136 991.761 223.426C992.261 223.71 992.847 223.852 993.517 223.852C993.966 223.852 994.372 223.79 994.736 223.665C995.1 223.534 995.415 223.344 995.682 223.094C995.949 222.844 996.151 222.534 996.287 222.165L999.168 222.489C998.986 223.25 998.639 223.915 998.128 224.483C997.622 225.045 996.975 225.483 996.185 225.795C995.395 226.102 994.492 226.256 993.475 226.256ZM1017.48 213.344C1017.4 212.599 1017.07 212.02 1016.48 211.605C1015.89 211.19 1015.13 210.983 1014.19 210.983C1013.53 210.983 1012.97 211.082 1012.5 211.281C1012.02 211.48 1011.66 211.75 1011.41 212.091C1011.16 212.432 1011.03 212.821 1011.03 213.259C1011.03 213.622 1011.11 213.937 1011.28 214.205C1011.45 214.472 1011.68 214.699 1011.97 214.886C1012.26 215.068 1012.58 215.222 1012.93 215.347C1013.28 215.472 1013.64 215.577 1014 215.662L1015.63 216.071C1016.29 216.224 1016.92 216.432 1017.53 216.693C1018.15 216.955 1018.69 217.284 1019.18 217.682C1019.67 218.08 1020.05 218.56 1020.34 219.122C1020.62 219.685 1020.76 220.344 1020.76 221.099C1020.76 222.122 1020.5 223.023 1019.98 223.801C1019.46 224.574 1018.7 225.179 1017.71 225.616C1016.73 226.048 1015.54 226.264 1014.14 226.264C1012.78 226.264 1011.6 226.054 1010.6 225.634C1009.61 225.213 1008.83 224.599 1008.27 223.793C1007.71 222.986 1007.41 222.003 1007.36 220.844H1010.48C1010.52 221.452 1010.71 221.957 1011.04 222.361C1011.37 222.764 1011.8 223.065 1012.32 223.264C1012.86 223.463 1013.46 223.562 1014.11 223.562C1014.8 223.562 1015.4 223.46 1015.92 223.256C1016.44 223.045 1016.85 222.756 1017.15 222.386C1017.44 222.011 1017.59 221.574 1017.6 221.074C1017.59 220.619 1017.46 220.244 1017.2 219.949C1016.94 219.648 1016.57 219.398 1016.1 219.199C1015.63 218.994 1015.09 218.812 1014.46 218.653L1012.48 218.142C1011.04 217.773 1009.9 217.213 1009.07 216.463C1008.24 215.707 1007.82 214.705 1007.82 213.455C1007.82 212.426 1008.1 211.526 1008.66 210.753C1009.22 209.98 1009.99 209.381 1010.95 208.955C1011.92 208.523 1013.01 208.307 1014.23 208.307C1015.47 208.307 1016.56 208.523 1017.49 208.955C1018.43 209.381 1019.16 209.974 1019.7 210.736C1020.23 211.491 1020.51 212.361 1020.52 213.344H1017.48ZM1025.54 226H1022.17L1028.31 208.545H1032.21L1038.37 226H1034.99L1030.33 212.125H1030.19L1025.54 226ZM1025.65 219.156H1034.86V221.696H1025.65V219.156ZM1046.58 226H1040.67V208.545H1046.7C1048.43 208.545 1049.92 208.895 1051.17 209.594C1052.42 210.287 1053.38 211.284 1054.05 212.585C1054.72 213.886 1055.05 215.443 1055.05 217.256C1055.05 219.074 1054.72 220.636 1054.04 221.943C1053.37 223.25 1052.4 224.253 1051.13 224.952C1049.87 225.651 1048.35 226 1046.58 226ZM1043.83 223.264H1046.43C1047.64 223.264 1048.66 223.043 1049.47 222.599C1050.28 222.151 1050.89 221.483 1051.3 220.597C1051.71 219.705 1051.92 218.591 1051.92 217.256C1051.92 215.92 1051.71 214.812 1051.3 213.932C1050.89 213.045 1050.29 212.384 1049.49 211.946C1048.69 211.503 1047.7 211.281 1046.52 211.281H1043.83V223.264ZM800.121 255V241.909H803.206V255H800.121ZM801.672 240.051C801.183 240.051 800.763 239.889 800.41 239.565C800.058 239.236 799.882 238.841 799.882 238.381C799.882 237.915 800.058 237.52 800.41 237.196C800.763 236.866 801.183 236.702 801.672 236.702C802.166 236.702 802.586 236.866 802.933 237.196C803.285 237.52 803.461 237.915 803.461 238.381C803.461 238.841 803.285 239.236 802.933 239.565C802.586 239.889 802.166 240.051 801.672 240.051ZM809.464 247.33V255H806.378V241.909H809.327V244.134H809.481C809.782 243.401 810.262 242.818 810.921 242.386C811.586 241.955 812.407 241.739 813.384 241.739C814.287 241.739 815.074 241.932 815.745 242.318C816.421 242.705 816.944 243.264 817.313 243.997C817.688 244.73 817.873 245.619 817.867 246.665V255H814.782V247.142C814.782 246.267 814.554 245.582 814.1 245.088C813.651 244.594 813.029 244.347 812.233 244.347C811.694 244.347 811.214 244.466 810.793 244.705C810.378 244.937 810.052 245.276 809.813 245.719C809.58 246.162 809.464 246.699 809.464 247.33ZM832.667 255.256C831.388 255.256 830.28 254.974 829.343 254.412C828.405 253.849 827.678 253.062 827.161 252.051C826.65 251.04 826.394 249.858 826.394 248.506C826.394 247.153 826.65 245.969 827.161 244.952C827.678 243.935 828.405 243.145 829.343 242.582C830.28 242.02 831.388 241.739 832.667 241.739C833.945 241.739 835.053 242.02 835.991 242.582C836.928 243.145 837.652 243.935 838.164 244.952C838.681 245.969 838.939 247.153 838.939 248.506C838.939 249.858 838.681 251.04 838.164 252.051C837.652 253.062 836.928 253.849 835.991 254.412C835.053 254.974 833.945 255.256 832.667 255.256ZM832.684 252.784C833.377 252.784 833.956 252.594 834.422 252.213C834.888 251.827 835.235 251.31 835.462 250.662C835.695 250.014 835.812 249.293 835.812 248.497C835.812 247.696 835.695 246.972 835.462 246.324C835.235 245.67 834.888 245.151 834.422 244.764C833.956 244.378 833.377 244.185 832.684 244.185C831.973 244.185 831.383 244.378 830.911 244.764C830.445 245.151 830.096 245.67 829.863 246.324C829.635 246.972 829.522 247.696 829.522 248.497C829.522 249.293 829.635 250.014 829.863 250.662C830.096 251.31 830.445 251.827 830.911 252.213C831.383 252.594 831.973 252.784 832.684 252.784ZM844.643 247.33V255H841.558V241.909H844.507V244.134H844.66C844.961 243.401 845.442 242.818 846.101 242.386C846.765 241.955 847.586 241.739 848.564 241.739C849.467 241.739 850.254 241.932 850.924 242.318C851.601 242.705 852.123 243.264 852.493 243.997C852.868 244.73 853.052 245.619 853.047 246.665V255H849.961V247.142C849.961 246.267 849.734 245.582 849.28 245.088C848.831 244.594 848.209 244.347 847.413 244.347C846.873 244.347 846.393 244.466 845.973 244.705C845.558 244.937 845.231 245.276 844.993 245.719C844.76 246.162 844.643 246.699 844.643 247.33ZM861.978 255.256C860.666 255.256 859.532 254.983 858.578 254.438C857.629 253.886 856.899 253.108 856.388 252.102C855.876 251.091 855.621 249.901 855.621 248.531C855.621 247.185 855.876 246.003 856.388 244.986C856.905 243.963 857.626 243.168 858.552 242.599C859.478 242.026 860.567 241.739 861.817 241.739C862.623 241.739 863.385 241.869 864.101 242.131C864.822 242.386 865.459 242.784 866.01 243.324C866.567 243.864 867.004 244.551 867.322 245.386C867.64 246.216 867.799 247.205 867.799 248.352V249.298H857.069V247.219H864.842C864.836 246.628 864.709 246.102 864.459 245.642C864.209 245.176 863.859 244.81 863.41 244.543C862.967 244.276 862.45 244.142 861.859 244.142C861.228 244.142 860.674 244.295 860.197 244.602C859.72 244.903 859.348 245.301 859.081 245.795C858.819 246.284 858.686 246.821 858.68 247.406V249.222C858.68 249.983 858.819 250.636 859.098 251.182C859.376 251.722 859.765 252.136 860.265 252.426C860.765 252.71 861.351 252.852 862.021 252.852C862.47 252.852 862.876 252.79 863.24 252.665C863.603 252.534 863.919 252.344 864.186 252.094C864.453 251.844 864.655 251.534 864.791 251.165L867.672 251.489C867.49 252.25 867.143 252.915 866.632 253.483C866.126 254.045 865.478 254.483 864.689 254.795C863.899 255.102 862.996 255.256 861.978 255.256ZM876.363 259.909V241.909H879.397V244.074H879.576C879.735 243.756 879.959 243.418 880.249 243.06C880.539 242.696 880.931 242.386 881.425 242.131C881.92 241.869 882.55 241.739 883.317 241.739C884.329 241.739 885.241 241.997 886.053 242.514C886.871 243.026 887.519 243.784 887.996 244.79C888.479 245.79 888.721 247.017 888.721 248.472C888.721 249.909 888.485 251.131 888.013 252.136C887.542 253.142 886.9 253.909 886.087 254.438C885.275 254.966 884.354 255.23 883.326 255.23C882.576 255.23 881.954 255.105 881.459 254.855C880.965 254.605 880.567 254.304 880.266 253.952C879.971 253.594 879.741 253.256 879.576 252.938H879.448V259.909H876.363ZM879.388 248.455C879.388 249.301 879.508 250.043 879.746 250.679C879.991 251.315 880.34 251.812 880.795 252.17C881.255 252.523 881.812 252.699 882.465 252.699C883.147 252.699 883.718 252.517 884.178 252.153C884.638 251.784 884.985 251.281 885.218 250.645C885.456 250.003 885.576 249.273 885.576 248.455C885.576 247.642 885.459 246.92 885.226 246.29C884.993 245.659 884.647 245.165 884.187 244.807C883.726 244.449 883.152 244.27 882.465 244.27C881.806 244.27 881.246 244.443 880.786 244.79C880.326 245.136 879.976 245.622 879.738 246.247C879.505 246.872 879.388 247.608 879.388 248.455ZM897.073 255.256C895.795 255.256 894.687 254.974 893.749 254.412C892.812 253.849 892.084 253.062 891.567 252.051C891.056 251.04 890.8 249.858 890.8 248.506C890.8 247.153 891.056 245.969 891.567 244.952C892.084 243.935 892.812 243.145 893.749 242.582C894.687 242.02 895.795 241.739 897.073 241.739C898.351 241.739 899.459 242.02 900.397 242.582C901.334 243.145 902.059 243.935 902.57 244.952C903.087 245.969 903.346 247.153 903.346 248.506C903.346 249.858 903.087 251.04 902.57 252.051C902.059 253.062 901.334 253.849 900.397 254.412C899.459 254.974 898.351 255.256 897.073 255.256ZM897.09 252.784C897.783 252.784 898.363 252.594 898.829 252.213C899.295 251.827 899.641 251.31 899.868 250.662C900.101 250.014 900.218 249.293 900.218 248.497C900.218 247.696 900.101 246.972 899.868 246.324C899.641 245.67 899.295 245.151 898.829 244.764C898.363 244.378 897.783 244.185 897.09 244.185C896.38 244.185 895.789 244.378 895.317 244.764C894.851 245.151 894.502 245.67 894.269 246.324C894.042 246.972 893.928 247.696 893.928 248.497C893.928 249.293 894.042 250.014 894.269 250.662C894.502 251.31 894.851 251.827 895.317 252.213C895.789 252.594 896.38 252.784 897.09 252.784ZM905.964 255V241.909H909.049V255H905.964ZM907.515 240.051C907.027 240.051 906.606 239.889 906.254 239.565C905.902 239.236 905.726 238.841 905.726 238.381C905.726 237.915 905.902 237.52 906.254 237.196C906.606 236.866 907.027 236.702 907.515 236.702C908.01 236.702 908.43 236.866 908.777 237.196C909.129 237.52 909.305 237.915 909.305 238.381C909.305 238.841 909.129 239.236 908.777 239.565C908.43 239.889 908.01 240.051 907.515 240.051ZM915.307 247.33V255H912.222V241.909H915.171V244.134H915.324C915.625 243.401 916.106 242.818 916.765 242.386C917.429 241.955 918.25 241.739 919.228 241.739C920.131 241.739 920.918 241.932 921.589 242.318C922.265 242.705 922.787 243.264 923.157 243.997C923.532 244.73 923.716 245.619 923.711 246.665V255H920.625V247.142C920.625 246.267 920.398 245.582 919.944 245.088C919.495 244.594 918.873 244.347 918.077 244.347C917.537 244.347 917.057 244.466 916.637 244.705C916.222 244.937 915.895 245.276 915.657 245.719C915.424 246.162 915.307 246.699 915.307 247.33ZM933.384 241.909V244.295H925.858V241.909H933.384ZM927.716 238.773H930.802V251.062C930.802 251.477 930.864 251.795 930.989 252.017C931.12 252.233 931.29 252.381 931.5 252.46C931.711 252.54 931.944 252.58 932.199 252.58C932.393 252.58 932.569 252.565 932.728 252.537C932.893 252.509 933.018 252.483 933.103 252.46L933.623 254.872C933.458 254.929 933.222 254.991 932.915 255.06C932.614 255.128 932.245 255.168 931.807 255.179C931.035 255.202 930.339 255.085 929.719 254.83C929.1 254.568 928.608 254.165 928.245 253.619C927.887 253.074 927.711 252.392 927.716 251.574V238.773ZM941.917 255V241.909H945.003V255H941.917ZM943.469 240.051C942.98 240.051 942.559 239.889 942.207 239.565C941.855 239.236 941.679 238.841 941.679 238.381C941.679 237.915 941.855 237.52 942.207 237.196C942.559 236.866 942.98 236.702 943.469 236.702C943.963 236.702 944.383 236.866 944.73 237.196C945.082 237.52 945.258 237.915 945.258 238.381C945.258 238.841 945.082 239.236 944.73 239.565C944.383 239.889 943.963 240.051 943.469 240.051ZM951.26 247.33V255H948.175V241.909H951.124V244.134H951.277C951.579 243.401 952.059 242.818 952.718 242.386C953.383 241.955 954.204 241.739 955.181 241.739C956.084 241.739 956.871 241.932 957.542 242.318C958.218 242.705 958.741 243.264 959.11 243.997C959.485 244.73 959.67 245.619 959.664 246.665V255H956.579V247.142C956.579 246.267 956.351 245.582 955.897 245.088C955.448 244.594 954.826 244.347 954.03 244.347C953.491 244.347 953.01 244.466 952.59 244.705C952.175 244.937 951.848 245.276 951.61 245.719C951.377 246.162 951.26 246.699 951.26 247.33ZM971.839 237.545V255H968.753V237.545H971.839ZM975.011 255V241.909H978.096V255H975.011ZM976.562 240.051C976.074 240.051 975.653 239.889 975.301 239.565C974.949 239.236 974.772 238.841 974.772 238.381C974.772 237.915 974.949 237.52 975.301 237.196C975.653 236.866 976.074 236.702 976.562 236.702C977.057 236.702 977.477 236.866 977.824 237.196C978.176 237.52 978.352 237.915 978.352 238.381C978.352 238.841 978.176 239.236 977.824 239.565C977.477 239.889 977.057 240.051 976.562 240.051ZM987.9 241.909V244.295H980.161V241.909H987.9ZM982.096 255V240.673C982.096 239.793 982.277 239.06 982.641 238.474C983.01 237.889 983.505 237.452 984.124 237.162C984.743 236.872 985.431 236.727 986.187 236.727C986.721 236.727 987.195 236.77 987.61 236.855C988.025 236.94 988.331 237.017 988.53 237.085L987.917 239.472C987.786 239.432 987.621 239.392 987.422 239.352C987.223 239.307 987.002 239.284 986.758 239.284C986.184 239.284 985.777 239.423 985.539 239.702C985.306 239.974 985.189 240.366 985.189 240.878V255H982.096ZM995.619 255.256C994.307 255.256 993.173 254.983 992.219 254.438C991.27 253.886 990.54 253.108 990.028 252.102C989.517 251.091 989.261 249.901 989.261 248.531C989.261 247.185 989.517 246.003 990.028 244.986C990.545 243.963 991.267 243.168 992.193 242.599C993.119 242.026 994.207 241.739 995.457 241.739C996.264 241.739 997.025 241.869 997.741 242.131C998.463 242.386 999.099 242.784 999.65 243.324C1000.21 243.864 1000.64 244.551 1000.96 245.386C1001.28 246.216 1001.44 247.205 1001.44 248.352V249.298H990.71V247.219H998.483C998.477 246.628 998.349 246.102 998.099 245.642C997.849 245.176 997.5 244.81 997.051 244.543C996.608 244.276 996.091 244.142 995.5 244.142C994.869 244.142 994.315 244.295 993.838 244.602C993.361 244.903 992.988 245.301 992.721 245.795C992.46 246.284 992.326 246.821 992.321 247.406V249.222C992.321 249.983 992.46 250.636 992.738 251.182C993.017 251.722 993.406 252.136 993.906 252.426C994.406 252.71 994.991 252.852 995.662 252.852C996.111 252.852 996.517 252.79 996.88 252.665C997.244 252.534 997.559 252.344 997.826 252.094C998.094 251.844 998.295 251.534 998.432 251.165L1001.31 251.489C1001.13 252.25 1000.78 252.915 1000.27 253.483C999.767 254.045 999.119 254.483 998.329 254.795C997.54 255.102 996.636 255.256 995.619 255.256Z" fill="#2C69A1"/>
</svg>
