<svg width="1284" height="410" viewBox="0 0 1284 410" fill="none" xmlns="http://www.w3.org/2000/svg">
<path d="M0 0.000244141H1284V410H0V0.000244141Z" fill="#A2D2FF"/>
<g filter="url(#filter0_d_103_2)">
<ellipse cx="354" cy="208" rx="171" ry="163" fill="white"/>
</g>
<g filter="url(#filter1_d_103_2)">
<path d="M1065 205C1065 295.023 988.441 368 894 368C799.559 368 723 295.023 723 205C723 114.978 799.559 42.0002 894 42.0002C988.441 42.0002 1065 114.978 1065 205Z" fill="white"/>
</g>
<path d="M267.418 200L297.111 141.228V140.75H262.645V130.182H310.202V140.989L280.543 200H267.418ZM316.943 200.75C314.875 200.75 313.102 200.023 311.625 198.568C310.148 197.114 309.42 195.341 309.443 193.25C309.42 191.205 310.148 189.455 311.625 188C313.102 186.546 314.875 185.818 316.943 185.818C318.943 185.818 320.682 186.546 322.159 188C323.659 189.455 324.42 191.205 324.443 193.25C324.42 194.637 324.057 195.898 323.352 197.034C322.67 198.171 321.761 199.08 320.625 199.762C319.511 200.421 318.284 200.75 316.943 200.75ZM356.821 130.182V200H344.173V142.489H343.764L327.435 152.921V141.33L344.787 130.182H356.821ZM411.878 186.909V183.228C411.878 180.523 412.446 178.034 413.582 175.762C414.741 173.489 416.423 171.659 418.628 170.273C420.832 168.887 423.503 168.193 426.639 168.193C429.866 168.193 432.571 168.887 434.753 170.273C436.935 171.637 438.582 173.455 439.696 175.728C440.832 178 441.401 180.5 441.401 183.228V186.909C441.401 189.614 440.832 192.103 439.696 194.375C438.56 196.648 436.889 198.478 434.685 199.864C432.503 201.25 429.821 201.943 426.639 201.943C423.457 201.943 420.764 201.25 418.56 199.864C416.355 198.478 414.685 196.648 413.548 194.375C412.435 192.103 411.878 189.614 411.878 186.909ZM420.776 183.228V186.909C420.776 188.705 421.207 190.353 422.071 191.853C422.935 193.353 424.457 194.103 426.639 194.103C428.844 194.103 430.355 193.364 431.173 191.887C432.014 190.387 432.435 188.728 432.435 186.909V183.228C432.435 181.409 432.037 179.75 431.241 178.25C430.446 176.728 428.912 175.966 426.639 175.966C424.503 175.966 422.991 176.728 422.105 178.25C421.219 179.75 420.776 181.409 420.776 183.228ZM376.389 146.955V143.273C376.389 140.546 376.969 138.046 378.128 135.773C379.287 133.5 380.969 131.682 383.173 130.318C385.378 128.932 388.048 128.239 391.185 128.239C394.389 128.239 397.082 128.932 399.264 130.318C401.469 131.682 403.128 133.5 404.241 135.773C405.355 138.046 405.912 140.546 405.912 143.273V146.955C405.912 149.682 405.344 152.182 404.207 154.455C403.094 156.705 401.435 158.512 399.23 159.875C397.026 161.239 394.344 161.921 391.185 161.921C387.98 161.921 385.276 161.239 383.071 159.875C380.889 158.512 379.23 156.693 378.094 154.421C376.957 152.148 376.389 149.659 376.389 146.955ZM385.355 143.273V146.955C385.355 148.773 385.776 150.432 386.616 151.932C387.48 153.409 389.003 154.148 391.185 154.148C393.366 154.148 394.866 153.409 395.685 151.932C396.526 150.432 396.946 148.773 396.946 146.955V143.273C396.946 141.455 396.548 139.796 395.753 138.296C394.957 136.773 393.435 136.012 391.185 136.012C389.026 136.012 387.514 136.773 386.651 138.296C385.787 139.818 385.355 141.478 385.355 143.273ZM380.276 200L428.276 130.182H436.798L388.798 200H380.276Z" fill="#2C69A1"/>
<path d="M809.055 135.182V205H796.408V147.489H795.999L779.669 157.921V146.33L797.021 135.182H809.055ZM826.783 205V195.864L851.021 172.103C853.339 169.762 855.271 167.682 856.817 165.864C858.362 164.046 859.521 162.284 860.294 160.58C861.067 158.875 861.453 157.057 861.453 155.125C861.453 152.921 860.953 151.034 859.953 149.466C858.953 147.875 857.578 146.648 855.828 145.784C854.078 144.921 852.089 144.489 849.862 144.489C847.567 144.489 845.555 144.966 843.828 145.921C842.101 146.853 840.76 148.182 839.805 149.909C838.874 151.637 838.408 153.693 838.408 156.08H826.374C826.374 151.648 827.385 147.796 829.408 144.523C831.43 141.25 834.214 138.716 837.76 136.921C841.328 135.125 845.419 134.228 850.033 134.228C854.714 134.228 858.828 135.103 862.374 136.853C865.919 138.603 868.669 141 870.624 144.046C872.601 147.091 873.589 150.568 873.589 154.478C873.589 157.091 873.089 159.659 872.089 162.182C871.089 164.705 869.328 167.5 866.805 170.568C864.305 173.637 860.794 177.353 856.271 181.716L844.237 193.955V194.432H874.646V205H826.783ZM894.146 205.75C892.078 205.75 890.305 205.023 888.828 203.568C887.351 202.114 886.624 200.341 886.646 198.25C886.624 196.205 887.351 194.455 888.828 193C890.305 191.546 892.078 190.818 894.146 190.818C896.146 190.818 897.885 191.546 899.362 193C900.862 194.455 901.624 196.205 901.646 198.25C901.624 199.637 901.26 200.898 900.555 202.034C899.874 203.171 898.964 204.08 897.828 204.762C896.714 205.421 895.487 205.75 894.146 205.75ZM934.024 135.182V205H921.376V147.489H920.967L904.638 157.921V146.33L921.99 135.182H934.024ZM989.081 191.909V188.228C989.081 185.523 989.649 183.034 990.786 180.762C991.945 178.489 993.626 176.659 995.831 175.273C998.036 173.887 1000.71 173.193 1003.84 173.193C1007.07 173.193 1009.77 173.887 1011.96 175.273C1014.14 176.637 1015.79 178.455 1016.9 180.728C1018.04 183 1018.6 185.5 1018.6 188.228V191.909C1018.6 194.614 1018.04 197.103 1016.9 199.375C1015.76 201.648 1014.09 203.478 1011.89 204.864C1009.71 206.25 1007.02 206.943 1003.84 206.943C1000.66 206.943 997.967 206.25 995.763 204.864C993.558 203.478 991.888 201.648 990.751 199.375C989.638 197.103 989.081 194.614 989.081 191.909ZM997.979 188.228V191.909C997.979 193.705 998.411 195.353 999.274 196.853C1000.14 198.353 1001.66 199.103 1003.84 199.103C1006.05 199.103 1007.56 198.364 1008.38 196.887C1009.22 195.387 1009.64 193.728 1009.64 191.909V188.228C1009.64 186.409 1009.24 184.75 1008.44 183.25C1007.65 181.728 1006.12 180.966 1003.84 180.966C1001.71 180.966 1000.19 181.728 999.308 183.25C998.422 184.75 997.979 186.409 997.979 188.228ZM953.592 151.955V148.273C953.592 145.546 954.172 143.046 955.331 140.773C956.49 138.5 958.172 136.682 960.376 135.318C962.581 133.932 965.251 133.239 968.388 133.239C971.592 133.239 974.286 133.932 976.467 135.318C978.672 136.682 980.331 138.5 981.445 140.773C982.558 143.046 983.115 145.546 983.115 148.273V151.955C983.115 154.682 982.547 157.182 981.411 159.455C980.297 161.705 978.638 163.512 976.433 164.875C974.229 166.239 971.547 166.921 968.388 166.921C965.183 166.921 962.479 166.239 960.274 164.875C958.092 163.512 956.433 161.693 955.297 159.421C954.161 157.148 953.592 154.659 953.592 151.955ZM962.558 148.273V151.955C962.558 153.773 962.979 155.432 963.82 156.932C964.683 158.409 966.206 159.148 968.388 159.148C970.57 159.148 972.07 158.409 972.888 156.932C973.729 155.432 974.149 153.773 974.149 151.955V148.273C974.149 146.455 973.751 144.796 972.956 143.296C972.161 141.773 970.638 141.012 968.388 141.012C966.229 141.012 964.717 141.773 963.854 143.296C962.99 144.818 962.558 146.478 962.558 148.273ZM957.479 205L1005.48 135.182H1014L966.001 205H957.479Z" fill="#2C69A1"/>
<path d="M224.064 229.546H227.226V240.949C227.226 242.199 226.931 243.299 226.34 244.247C225.755 245.196 224.931 245.938 223.868 246.472C222.806 247 221.564 247.264 220.144 247.264C218.718 247.264 217.473 247 216.411 246.472C215.348 245.938 214.525 245.196 213.939 244.247C213.354 243.299 213.061 242.199 213.061 240.949V229.546H216.223V240.685C216.223 241.412 216.382 242.06 216.701 242.628C217.025 243.196 217.479 243.642 218.064 243.966C218.65 244.284 219.343 244.443 220.144 244.443C220.945 244.443 221.638 244.284 222.223 243.966C222.814 243.642 223.269 243.196 223.587 242.628C223.905 242.06 224.064 241.412 224.064 240.685V229.546ZM231.607 247.188C231.09 247.188 230.647 247.006 230.277 246.642C229.908 246.279 229.726 245.835 229.732 245.313C229.726 244.801 229.908 244.364 230.277 244C230.647 243.637 231.09 243.455 231.607 243.455C232.107 243.455 232.542 243.637 232.911 244C233.286 244.364 233.476 244.801 233.482 245.313C233.476 245.659 233.385 245.975 233.209 246.259C233.039 246.543 232.811 246.77 232.527 246.941C232.249 247.105 231.942 247.188 231.607 247.188ZM246.289 234.344C246.21 233.6 245.875 233.02 245.284 232.605C244.699 232.191 243.937 231.983 243 231.983C242.341 231.983 241.775 232.083 241.304 232.281C240.832 232.48 240.471 232.75 240.221 233.091C239.971 233.432 239.843 233.821 239.838 234.259C239.838 234.622 239.92 234.938 240.085 235.205C240.255 235.472 240.485 235.699 240.775 235.887C241.065 236.068 241.386 236.222 241.738 236.347C242.091 236.472 242.446 236.577 242.804 236.662L244.44 237.071C245.099 237.225 245.733 237.432 246.341 237.693C246.954 237.955 247.502 238.284 247.985 238.682C248.474 239.08 248.86 239.56 249.145 240.122C249.429 240.685 249.571 241.344 249.571 242.1C249.571 243.122 249.309 244.023 248.787 244.801C248.264 245.574 247.508 246.179 246.52 246.617C245.537 247.049 244.346 247.264 242.949 247.264C241.591 247.264 240.412 247.054 239.412 246.634C238.417 246.213 237.639 245.6 237.076 244.793C236.52 243.986 236.218 243.003 236.173 241.844H239.284C239.329 242.452 239.517 242.958 239.846 243.361C240.176 243.764 240.605 244.066 241.133 244.264C241.667 244.463 242.264 244.563 242.923 244.563C243.61 244.563 244.213 244.46 244.73 244.256C245.252 244.046 245.662 243.756 245.957 243.387C246.252 243.012 246.403 242.574 246.409 242.074C246.403 241.62 246.27 241.245 246.008 240.949C245.747 240.648 245.38 240.398 244.909 240.199C244.443 239.995 243.897 239.813 243.272 239.654L241.287 239.142C239.849 238.773 238.713 238.213 237.877 237.463C237.048 236.708 236.633 235.705 236.633 234.455C236.633 233.426 236.912 232.526 237.468 231.753C238.031 230.98 238.795 230.381 239.761 229.955C240.727 229.523 241.821 229.307 243.042 229.307C244.281 229.307 245.366 229.523 246.298 229.955C247.235 230.381 247.971 230.975 248.505 231.736C249.039 232.492 249.315 233.361 249.332 234.344H246.289ZM260.584 247H257.209L263.354 229.546H267.257L273.411 247H270.036L265.374 233.125H265.238L260.584 247ZM260.695 240.156H269.9V242.696H260.695V240.156ZM280.033 247.23C279.005 247.23 278.084 246.966 277.272 246.438C276.459 245.909 275.817 245.142 275.346 244.137C274.874 243.131 274.638 241.909 274.638 240.472C274.638 239.017 274.877 237.79 275.354 236.79C275.837 235.784 276.488 235.026 277.306 234.514C278.124 233.997 279.036 233.739 280.042 233.739C280.809 233.739 281.439 233.87 281.934 234.131C282.428 234.387 282.82 234.696 283.11 235.06C283.4 235.418 283.624 235.756 283.783 236.074H283.911V229.546H287.005V247H283.971V244.938H283.783C283.624 245.256 283.394 245.594 283.093 245.952C282.792 246.304 282.394 246.605 281.9 246.855C281.405 247.105 280.783 247.23 280.033 247.23ZM280.894 244.699C281.547 244.699 282.104 244.523 282.564 244.171C283.025 243.813 283.374 243.316 283.613 242.679C283.851 242.043 283.971 241.301 283.971 240.455C283.971 239.608 283.851 238.872 283.613 238.247C283.38 237.622 283.033 237.137 282.573 236.79C282.118 236.443 281.559 236.27 280.894 236.27C280.206 236.27 279.632 236.449 279.172 236.807C278.712 237.165 278.365 237.659 278.132 238.29C277.9 238.921 277.783 239.642 277.783 240.455C277.783 241.273 277.9 242.003 278.132 242.645C278.371 243.281 278.721 243.784 279.181 244.154C279.647 244.517 280.218 244.699 280.894 244.699ZM298.636 241.495V233.909H301.721V247H298.73V244.674H298.593C298.298 245.406 297.812 246.006 297.136 246.472C296.466 246.938 295.639 247.171 294.656 247.171C293.798 247.171 293.039 246.98 292.38 246.6C291.727 246.213 291.216 245.654 290.846 244.921C290.477 244.182 290.292 243.29 290.292 242.245V233.909H293.377V241.767C293.377 242.597 293.605 243.256 294.059 243.745C294.514 244.233 295.11 244.478 295.849 244.478C296.304 244.478 296.744 244.367 297.17 244.145C297.596 243.924 297.946 243.594 298.218 243.156C298.497 242.713 298.636 242.159 298.636 241.495ZM307.979 229.546V247H304.894V229.546H307.979ZM317.689 233.909V236.296H310.163V233.909H317.689ZM312.021 230.773H315.106V243.063C315.106 243.478 315.169 243.796 315.294 244.017C315.424 244.233 315.595 244.381 315.805 244.46C316.015 244.54 316.248 244.58 316.504 244.58C316.697 244.58 316.873 244.566 317.032 244.537C317.197 244.509 317.322 244.483 317.407 244.46L317.927 246.872C317.762 246.929 317.527 246.992 317.22 247.06C316.919 247.128 316.549 247.168 316.112 247.179C315.339 247.202 314.643 247.085 314.024 246.83C313.404 246.568 312.913 246.165 312.549 245.62C312.191 245.074 312.015 244.392 312.021 243.574V230.773ZM330.428 237.37L327.615 237.676C327.536 237.392 327.397 237.125 327.198 236.875C327.005 236.625 326.743 236.424 326.414 236.27C326.084 236.117 325.681 236.04 325.203 236.04C324.561 236.04 324.022 236.179 323.584 236.458C323.152 236.736 322.939 237.097 322.945 237.54C322.939 237.921 323.078 238.23 323.363 238.469C323.652 238.708 324.13 238.904 324.794 239.057L327.027 239.534C328.266 239.801 329.186 240.225 329.789 240.804C330.397 241.384 330.703 242.142 330.709 243.08C330.703 243.904 330.462 244.631 329.985 245.262C329.513 245.887 328.857 246.375 328.016 246.728C327.175 247.08 326.209 247.256 325.118 247.256C323.516 247.256 322.226 246.921 321.249 246.25C320.272 245.574 319.689 244.634 319.502 243.429L322.51 243.139C322.647 243.73 322.936 244.176 323.38 244.478C323.823 244.779 324.4 244.929 325.11 244.929C325.843 244.929 326.431 244.779 326.874 244.478C327.323 244.176 327.547 243.804 327.547 243.361C327.547 242.986 327.402 242.676 327.113 242.432C326.828 242.188 326.385 242 325.783 241.87L323.55 241.401C322.294 241.139 321.365 240.699 320.763 240.08C320.161 239.455 319.863 238.665 319.868 237.71C319.863 236.904 320.081 236.205 320.525 235.614C320.973 235.017 321.596 234.557 322.391 234.233C323.192 233.904 324.115 233.739 325.161 233.739C326.695 233.739 327.902 234.066 328.783 234.719C329.669 235.372 330.218 236.256 330.428 237.37ZM349.553 237.37L346.74 237.676C346.661 237.392 346.522 237.125 346.323 236.875C346.13 236.625 345.868 236.424 345.539 236.27C345.209 236.117 344.806 236.04 344.328 236.04C343.686 236.04 343.147 236.179 342.709 236.458C342.277 236.736 342.064 237.097 342.07 237.54C342.064 237.921 342.203 238.23 342.488 238.469C342.777 238.708 343.255 238.904 343.919 239.057L346.152 239.534C347.391 239.801 348.311 240.225 348.914 240.804C349.522 241.384 349.828 242.142 349.834 243.08C349.828 243.904 349.587 244.631 349.11 245.262C348.638 245.887 347.982 246.375 347.141 246.728C346.3 247.08 345.334 247.256 344.243 247.256C342.641 247.256 341.351 246.921 340.374 246.25C339.397 245.574 338.814 244.634 338.627 243.429L341.635 243.139C341.772 243.73 342.061 244.176 342.505 244.478C342.948 244.779 343.525 244.929 344.235 244.929C344.968 244.929 345.556 244.779 345.999 244.478C346.448 244.176 346.672 243.804 346.672 243.361C346.672 242.986 346.527 242.676 346.238 242.432C345.953 242.188 345.51 242 344.908 241.87L342.675 241.401C341.419 241.139 340.49 240.699 339.888 240.08C339.286 239.455 338.988 238.665 338.993 237.71C338.988 236.904 339.206 236.205 339.65 235.614C340.098 235.017 340.721 234.557 341.516 234.233C342.317 233.904 343.24 233.739 344.286 233.739C345.82 233.739 347.027 234.066 347.908 234.719C348.794 235.372 349.343 236.256 349.553 237.37ZM360.722 241.495V233.909H363.807V247H360.816V244.674H360.679C360.384 245.406 359.898 246.006 359.222 246.472C358.551 246.938 357.725 247.171 356.742 247.171C355.884 247.171 355.125 246.98 354.466 246.6C353.813 246.213 353.301 245.654 352.932 244.921C352.563 244.182 352.378 243.29 352.378 242.245V233.909H355.463V241.767C355.463 242.597 355.691 243.256 356.145 243.745C356.6 244.233 357.196 244.478 357.935 244.478C358.39 244.478 358.83 244.367 359.256 244.145C359.682 243.924 360.032 243.594 360.304 243.156C360.583 242.713 360.722 242.159 360.722 241.495ZM373.61 233.909V236.296H365.872V233.909H373.61ZM367.806 247V232.674C367.806 231.793 367.988 231.06 368.352 230.475C368.721 229.889 369.216 229.452 369.835 229.162C370.454 228.872 371.142 228.728 371.897 228.728C372.431 228.728 372.906 228.77 373.321 228.855C373.735 228.941 374.042 229.017 374.241 229.085L373.627 231.472C373.497 231.432 373.332 231.392 373.133 231.353C372.934 231.307 372.713 231.284 372.468 231.284C371.895 231.284 371.488 231.424 371.25 231.702C371.017 231.975 370.9 232.367 370.9 232.878V247H367.806ZM382.657 233.909V236.296H374.919V233.909H382.657ZM376.853 247V232.674C376.853 231.793 377.035 231.06 377.399 230.475C377.768 229.889 378.262 229.452 378.882 229.162C379.501 228.872 380.189 228.728 380.944 228.728C381.478 228.728 381.953 228.77 382.368 228.855C382.782 228.941 383.089 229.017 383.288 229.085L382.674 231.472C382.544 231.432 382.379 231.392 382.18 231.353C381.981 231.307 381.76 231.284 381.515 231.284C380.941 231.284 380.535 231.424 380.297 231.702C380.064 231.975 379.947 232.367 379.947 232.878V247H376.853ZM390.377 247.256C389.064 247.256 387.931 246.983 386.976 246.438C386.027 245.887 385.297 245.108 384.786 244.103C384.275 243.091 384.019 241.901 384.019 240.531C384.019 239.185 384.275 238.003 384.786 236.986C385.303 235.963 386.025 235.168 386.951 234.6C387.877 234.026 388.965 233.739 390.215 233.739C391.022 233.739 391.783 233.87 392.499 234.131C393.221 234.387 393.857 234.784 394.408 235.324C394.965 235.864 395.402 236.551 395.721 237.387C396.039 238.216 396.198 239.205 396.198 240.353V241.299H385.468V239.219H393.24C393.235 238.628 393.107 238.103 392.857 237.642C392.607 237.176 392.257 236.81 391.809 236.543C391.365 236.276 390.848 236.142 390.257 236.142C389.627 236.142 389.073 236.296 388.596 236.603C388.118 236.904 387.746 237.301 387.479 237.796C387.218 238.284 387.084 238.821 387.078 239.406V241.222C387.078 241.983 387.218 242.637 387.496 243.182C387.775 243.722 388.164 244.137 388.664 244.426C389.164 244.71 389.749 244.853 390.419 244.853C390.868 244.853 391.275 244.79 391.638 244.665C392.002 244.534 392.317 244.344 392.584 244.094C392.851 243.844 393.053 243.534 393.189 243.165L396.07 243.489C395.888 244.25 395.542 244.915 395.03 245.483C394.525 246.046 393.877 246.483 393.087 246.796C392.297 247.103 391.394 247.256 390.377 247.256ZM398.808 247V233.909H401.799V236.091H401.936C402.174 235.335 402.583 234.753 403.163 234.344C403.748 233.929 404.416 233.722 405.166 233.722C405.336 233.722 405.527 233.73 405.737 233.747C405.953 233.759 406.132 233.779 406.274 233.807V236.645C406.143 236.6 405.936 236.56 405.652 236.526C405.373 236.486 405.103 236.466 404.842 236.466C404.279 236.466 403.774 236.588 403.325 236.833C402.882 237.071 402.532 237.404 402.277 237.83C402.021 238.256 401.893 238.747 401.893 239.304V247H398.808ZM413.58 247.256C412.267 247.256 411.134 246.983 410.179 246.438C409.23 245.887 408.5 245.108 407.989 244.103C407.478 243.091 407.222 241.901 407.222 240.531C407.222 239.185 407.478 238.003 407.989 236.986C408.506 235.963 409.228 235.168 410.154 234.6C411.08 234.026 412.168 233.739 413.418 233.739C414.225 233.739 414.986 233.87 415.702 234.131C416.424 234.387 417.06 234.784 417.611 235.324C418.168 235.864 418.605 236.551 418.924 237.387C419.242 238.216 419.401 239.205 419.401 240.353V241.299H408.671V239.219H416.444C416.438 238.628 416.31 238.103 416.06 237.642C415.81 237.176 415.461 236.81 415.012 236.543C414.569 236.276 414.051 236.142 413.461 236.142C412.83 236.142 412.276 236.296 411.799 236.603C411.321 236.904 410.949 237.301 410.682 237.796C410.421 238.284 410.287 238.821 410.282 239.406V241.222C410.282 241.983 410.421 242.637 410.699 243.182C410.978 243.722 411.367 244.137 411.867 244.426C412.367 244.71 412.952 244.853 413.623 244.853C414.071 244.853 414.478 244.79 414.841 244.665C415.205 244.534 415.52 244.344 415.787 244.094C416.054 243.844 416.256 243.534 416.392 243.165L419.273 243.489C419.091 244.25 418.745 244.915 418.233 245.483C417.728 246.046 417.08 246.483 416.29 246.796C415.5 247.103 414.597 247.256 413.58 247.256ZM426.869 247.23C425.841 247.23 424.92 246.966 424.108 246.438C423.295 245.909 422.653 245.142 422.181 244.137C421.71 243.131 421.474 241.909 421.474 240.472C421.474 239.017 421.713 237.79 422.19 236.79C422.673 235.784 423.324 235.026 424.142 234.514C424.96 233.997 425.872 233.739 426.877 233.739C427.645 233.739 428.275 233.87 428.77 234.131C429.264 234.387 429.656 234.696 429.946 235.06C430.235 235.418 430.46 235.756 430.619 236.074H430.747V229.546H433.841V247H430.806V244.938H430.619C430.46 245.256 430.23 245.594 429.929 245.952C429.627 246.304 429.23 246.605 428.735 246.855C428.241 247.105 427.619 247.23 426.869 247.23ZM427.73 244.699C428.383 244.699 428.94 244.523 429.4 244.171C429.86 243.813 430.21 243.316 430.449 242.679C430.687 242.043 430.806 241.301 430.806 240.455C430.806 239.608 430.687 238.872 430.449 238.247C430.216 237.622 429.869 237.137 429.409 236.79C428.954 236.443 428.395 236.27 427.73 236.27C427.042 236.27 426.468 236.449 426.008 236.807C425.548 237.165 425.201 237.659 424.968 238.29C424.735 238.921 424.619 239.642 424.619 240.455C424.619 241.273 424.735 242.003 424.968 242.645C425.207 243.281 425.556 243.784 426.017 244.154C426.483 244.517 427.054 244.699 427.73 244.699ZM449.712 233.909V236.296H441.973V233.909H449.712ZM443.908 247V232.674C443.908 231.793 444.09 231.06 444.453 230.475C444.823 229.889 445.317 229.452 445.936 229.162C446.556 228.872 447.243 228.728 447.999 228.728C448.533 228.728 449.007 228.77 449.422 228.855C449.837 228.941 450.144 229.017 450.343 229.085L449.729 231.472C449.598 231.432 449.434 231.392 449.235 231.353C449.036 231.307 448.814 231.284 448.57 231.284C447.996 231.284 447.59 231.424 447.351 231.702C447.118 231.975 447.002 232.367 447.002 232.878V247H443.908ZM452.128 247V233.909H455.12V236.091H455.256C455.495 235.335 455.904 234.753 456.483 234.344C457.069 233.929 457.736 233.722 458.486 233.722C458.657 233.722 458.847 233.73 459.057 233.747C459.273 233.759 459.452 233.779 459.594 233.807V236.645C459.463 236.6 459.256 236.56 458.972 236.526C458.694 236.486 458.424 236.466 458.162 236.466C457.6 236.466 457.094 236.588 456.645 236.833C456.202 237.071 455.853 237.404 455.597 237.83C455.341 238.256 455.213 238.747 455.213 239.304V247H452.128ZM466.815 247.256C465.537 247.256 464.429 246.975 463.491 246.412C462.554 245.85 461.826 245.063 461.309 244.051C460.798 243.04 460.542 241.858 460.542 240.506C460.542 239.154 460.798 237.969 461.309 236.952C461.826 235.935 462.554 235.145 463.491 234.583C464.429 234.02 465.537 233.739 466.815 233.739C468.093 233.739 469.201 234.02 470.139 234.583C471.076 235.145 471.801 235.935 472.312 236.952C472.829 237.969 473.088 239.154 473.088 240.506C473.088 241.858 472.829 243.04 472.312 244.051C471.801 245.063 471.076 245.85 470.139 246.412C469.201 246.975 468.093 247.256 466.815 247.256ZM466.832 244.784C467.525 244.784 468.105 244.594 468.571 244.213C469.037 243.827 469.383 243.31 469.61 242.662C469.843 242.014 469.96 241.293 469.96 240.497C469.96 239.696 469.843 238.972 469.61 238.324C469.383 237.671 469.037 237.151 468.571 236.764C468.105 236.378 467.525 236.185 466.832 236.185C466.122 236.185 465.531 236.378 465.059 236.764C464.593 237.151 464.244 237.671 464.011 238.324C463.784 238.972 463.67 239.696 463.67 240.497C463.67 241.293 463.784 242.014 464.011 242.662C464.244 243.31 464.593 243.827 465.059 244.213C465.531 244.594 466.122 244.784 466.832 244.784ZM475.706 247V233.909H478.655V236.134H478.809C479.081 235.384 479.533 234.799 480.164 234.378C480.794 233.952 481.547 233.739 482.422 233.739C483.309 233.739 484.056 233.955 484.664 234.387C485.277 234.813 485.709 235.395 485.959 236.134H486.096C486.385 235.406 486.874 234.827 487.561 234.395C488.255 233.958 489.076 233.739 490.025 233.739C491.229 233.739 492.212 234.12 492.973 234.881C493.735 235.642 494.115 236.753 494.115 238.213V247H491.022V238.691C491.022 237.878 490.806 237.284 490.374 236.909C489.942 236.529 489.414 236.338 488.789 236.338C488.044 236.338 487.462 236.571 487.042 237.037C486.627 237.497 486.419 238.097 486.419 238.835V247H483.394V238.563C483.394 237.887 483.189 237.347 482.78 236.943C482.377 236.54 481.848 236.338 481.195 236.338C480.752 236.338 480.348 236.452 479.985 236.679C479.621 236.901 479.331 237.216 479.115 237.625C478.9 238.029 478.792 238.5 478.792 239.04V247H475.706ZM240.067 263.344C239.987 262.6 239.652 262.02 239.061 261.605C238.476 261.191 237.714 260.983 236.777 260.983C236.118 260.983 235.553 261.083 235.081 261.281C234.609 261.48 234.249 261.75 233.999 262.091C233.749 262.432 233.621 262.821 233.615 263.259C233.615 263.622 233.697 263.938 233.862 264.205C234.033 264.472 234.263 264.699 234.553 264.887C234.842 265.068 235.163 265.222 235.516 265.347C235.868 265.472 236.223 265.577 236.581 265.662L238.217 266.071C238.876 266.225 239.51 266.432 240.118 266.693C240.732 266.955 241.28 267.284 241.763 267.682C242.251 268.08 242.638 268.56 242.922 269.122C243.206 269.685 243.348 270.344 243.348 271.1C243.348 272.122 243.087 273.023 242.564 273.801C242.041 274.574 241.286 275.179 240.297 275.617C239.314 276.049 238.124 276.264 236.726 276.264C235.368 276.264 234.189 276.054 233.189 275.634C232.195 275.213 231.416 274.6 230.854 273.793C230.297 272.986 229.996 272.003 229.95 270.844H233.061C233.107 271.452 233.294 271.958 233.624 272.361C233.953 272.764 234.382 273.066 234.911 273.264C235.445 273.463 236.041 273.563 236.7 273.563C237.388 273.563 237.99 273.46 238.507 273.256C239.03 273.046 239.439 272.756 239.734 272.387C240.03 272.012 240.18 271.574 240.186 271.074C240.18 270.62 240.047 270.245 239.786 269.949C239.524 269.648 239.158 269.398 238.686 269.199C238.22 268.995 237.675 268.813 237.05 268.654L235.064 268.142C233.626 267.773 232.49 267.213 231.655 266.463C230.825 265.708 230.411 264.705 230.411 263.455C230.411 262.426 230.689 261.526 231.246 260.753C231.808 259.98 232.572 259.381 233.538 258.955C234.504 258.523 235.598 258.307 236.82 258.307C238.058 258.307 239.143 258.523 240.075 258.955C241.013 259.381 241.749 259.975 242.283 260.736C242.817 261.492 243.092 262.361 243.109 263.344H240.067ZM247.931 276.188C247.414 276.188 246.971 276.006 246.602 275.642C246.232 275.279 246.05 274.835 246.056 274.313C246.05 273.801 246.232 273.364 246.602 273C246.971 272.637 247.414 272.455 247.931 272.455C248.431 272.455 248.866 272.637 249.235 273C249.61 273.364 249.8 273.801 249.806 274.313C249.8 274.659 249.71 274.975 249.533 275.259C249.363 275.543 249.136 275.77 248.852 275.941C248.573 276.105 248.266 276.188 247.931 276.188ZM255.369 276H251.994L258.139 258.546H262.043L268.196 276H264.821L260.159 262.125H260.023L255.369 276ZM255.48 269.156H264.685V271.696H255.48V269.156ZM272.259 276.188C271.742 276.188 271.299 276.006 270.93 275.642C270.56 275.279 270.379 274.835 270.384 274.313C270.379 273.801 270.56 273.364 270.93 273C271.299 272.637 271.742 272.455 272.259 272.455C272.759 272.455 273.194 272.637 273.563 273C273.938 273.364 274.129 273.801 274.134 274.313C274.129 274.659 274.038 274.975 273.862 275.259C273.691 275.543 273.464 275.77 273.18 275.941C272.901 276.105 272.594 276.188 272.259 276.188ZM283.371 276H277.456V258.546H283.49C285.223 258.546 286.712 258.895 287.956 259.594C289.206 260.287 290.166 261.284 290.837 262.585C291.507 263.887 291.842 265.443 291.842 267.256C291.842 269.074 291.504 270.637 290.828 271.943C290.158 273.25 289.189 274.253 287.922 274.952C286.661 275.651 285.143 276 283.371 276ZM280.618 273.264H283.217C284.433 273.264 285.447 273.043 286.26 272.6C287.072 272.151 287.683 271.483 288.092 270.597C288.501 269.705 288.706 268.591 288.706 267.256C288.706 265.921 288.501 264.813 288.092 263.932C287.683 263.046 287.078 262.384 286.277 261.946C285.482 261.503 284.493 261.281 283.311 261.281H280.618V273.264ZM300.663 276V262.909H303.749V276H300.663ZM302.214 261.051C301.726 261.051 301.305 260.889 300.953 260.566C300.601 260.236 300.425 259.841 300.425 259.381C300.425 258.915 300.601 258.52 300.953 258.196C301.305 257.867 301.726 257.702 302.214 257.702C302.709 257.702 303.129 257.867 303.476 258.196C303.828 258.52 304.004 258.915 304.004 259.381C304.004 259.841 303.828 260.236 303.476 260.566C303.129 260.889 302.709 261.051 302.214 261.051ZM310.006 268.33V276H306.921V262.909H309.87V265.134H310.023C310.325 264.401 310.805 263.818 311.464 263.387C312.129 262.955 312.95 262.739 313.927 262.739C314.83 262.739 315.617 262.932 316.288 263.318C316.964 263.705 317.487 264.264 317.856 264.997C318.231 265.73 318.415 266.62 318.41 267.665V276H315.325V268.142C315.325 267.267 315.097 266.583 314.643 266.088C314.194 265.594 313.572 265.347 312.776 265.347C312.237 265.347 311.756 265.466 311.336 265.705C310.921 265.938 310.594 266.276 310.356 266.719C310.123 267.162 310.006 267.699 310.006 268.33ZM334.036 262.909V265.296H326.511V262.909H334.036ZM328.369 259.773H331.454V272.063C331.454 272.478 331.516 272.796 331.641 273.017C331.772 273.233 331.942 273.381 332.153 273.46C332.363 273.54 332.596 273.58 332.852 273.58C333.045 273.58 333.221 273.566 333.38 273.537C333.545 273.509 333.67 273.483 333.755 273.46L334.275 275.872C334.11 275.929 333.874 275.992 333.567 276.06C333.266 276.128 332.897 276.168 332.46 276.179C331.687 276.202 330.991 276.085 330.371 275.83C329.752 275.568 329.261 275.165 328.897 274.62C328.539 274.074 328.363 273.392 328.369 272.574V259.773ZM339.983 268.33V276H336.898V258.546H339.915V265.134H340.068C340.375 264.395 340.849 263.813 341.491 263.387C342.139 262.955 342.963 262.739 343.963 262.739C344.872 262.739 345.665 262.929 346.341 263.31C347.017 263.691 347.54 264.247 347.909 264.98C348.284 265.713 348.472 266.608 348.472 267.665V276H345.386V268.142C345.386 267.262 345.159 266.577 344.705 266.088C344.256 265.594 343.625 265.347 342.812 265.347C342.267 265.347 341.778 265.466 341.347 265.705C340.92 265.938 340.585 266.276 340.341 266.719C340.102 267.162 339.983 267.699 339.983 268.33ZM357.412 276.256C356.099 276.256 354.966 275.983 354.011 275.438C353.063 274.887 352.332 274.108 351.821 273.103C351.31 272.091 351.054 270.901 351.054 269.531C351.054 268.185 351.31 267.003 351.821 265.986C352.338 264.963 353.06 264.168 353.986 263.6C354.912 263.026 356 262.739 357.25 262.739C358.057 262.739 358.818 262.87 359.534 263.131C360.256 263.387 360.892 263.784 361.443 264.324C362 264.864 362.438 265.551 362.756 266.387C363.074 267.216 363.233 268.205 363.233 269.353V270.299H352.503V268.219H360.276C360.27 267.628 360.142 267.103 359.892 266.642C359.642 266.176 359.293 265.81 358.844 265.543C358.401 265.276 357.884 265.142 357.293 265.142C356.662 265.142 356.108 265.296 355.631 265.603C355.153 265.904 354.781 266.301 354.514 266.796C354.253 267.284 354.119 267.821 354.114 268.406V270.222C354.114 270.983 354.253 271.637 354.531 272.182C354.81 272.722 355.199 273.137 355.699 273.426C356.199 273.71 356.784 273.853 357.455 273.853C357.903 273.853 358.31 273.79 358.673 273.665C359.037 273.534 359.352 273.344 359.619 273.094C359.886 272.844 360.088 272.534 360.224 272.165L363.105 272.489C362.923 273.25 362.577 273.915 362.065 274.483C361.56 275.046 360.912 275.483 360.122 275.796C359.332 276.103 358.429 276.256 357.412 276.256ZM371.796 280.909V262.909H374.83V265.074H375.009C375.168 264.756 375.393 264.418 375.683 264.06C375.972 263.696 376.364 263.387 376.859 263.131C377.353 262.87 377.984 262.739 378.751 262.739C379.762 262.739 380.674 262.997 381.487 263.514C382.305 264.026 382.952 264.784 383.43 265.79C383.913 266.79 384.154 268.017 384.154 269.472C384.154 270.909 383.918 272.131 383.447 273.137C382.975 274.142 382.333 274.909 381.521 275.438C380.708 275.966 379.788 276.23 378.759 276.23C378.009 276.23 377.387 276.105 376.893 275.855C376.398 275.605 376.001 275.304 375.7 274.952C375.404 274.594 375.174 274.256 375.009 273.938H374.881V280.909H371.796ZM374.822 269.455C374.822 270.301 374.941 271.043 375.18 271.679C375.424 272.316 375.773 272.813 376.228 273.171C376.688 273.523 377.245 273.699 377.898 273.699C378.58 273.699 379.151 273.517 379.612 273.154C380.072 272.784 380.418 272.281 380.651 271.645C380.89 271.003 381.009 270.273 381.009 269.455C381.009 268.642 380.893 267.921 380.66 267.29C380.427 266.659 380.08 266.165 379.62 265.807C379.16 265.449 378.586 265.27 377.898 265.27C377.239 265.27 376.68 265.443 376.219 265.79C375.759 266.137 375.41 266.622 375.171 267.247C374.938 267.872 374.822 268.608 374.822 269.455ZM390.563 276.264C389.734 276.264 388.987 276.117 388.322 275.821C387.663 275.52 387.14 275.077 386.754 274.492C386.373 273.906 386.183 273.185 386.183 272.327C386.183 271.588 386.319 270.978 386.592 270.495C386.864 270.012 387.237 269.625 387.708 269.335C388.18 269.046 388.711 268.827 389.302 268.679C389.898 268.526 390.515 268.415 391.151 268.347C391.918 268.267 392.54 268.196 393.018 268.134C393.495 268.066 393.842 267.963 394.058 267.827C394.279 267.685 394.39 267.466 394.39 267.171V267.12C394.39 266.478 394.2 265.98 393.819 265.628C393.438 265.276 392.89 265.1 392.174 265.1C391.418 265.1 390.819 265.264 390.376 265.594C389.938 265.924 389.643 266.313 389.489 266.762L386.609 266.353C386.836 265.557 387.211 264.892 387.734 264.358C388.256 263.818 388.896 263.415 389.651 263.148C390.407 262.875 391.242 262.739 392.157 262.739C392.788 262.739 393.415 262.813 394.04 262.96C394.665 263.108 395.237 263.353 395.754 263.693C396.271 264.029 396.685 264.486 396.998 265.066C397.316 265.645 397.475 266.37 397.475 267.239V276H394.509V274.202H394.407C394.219 274.566 393.955 274.906 393.614 275.225C393.279 275.537 392.856 275.79 392.344 275.983C391.839 276.171 391.245 276.264 390.563 276.264ZM391.364 273.997C391.984 273.997 392.521 273.875 392.975 273.631C393.43 273.381 393.779 273.051 394.023 272.642C394.273 272.233 394.398 271.787 394.398 271.304V269.762C394.302 269.841 394.137 269.915 393.904 269.983C393.677 270.051 393.421 270.111 393.137 270.162C392.853 270.213 392.572 270.259 392.293 270.299C392.015 270.338 391.773 270.372 391.569 270.401C391.109 270.463 390.697 270.566 390.333 270.708C389.969 270.85 389.683 271.049 389.472 271.304C389.262 271.554 389.157 271.878 389.157 272.276C389.157 272.844 389.364 273.273 389.779 273.563C390.194 273.853 390.722 273.997 391.364 273.997ZM410.924 266.37L408.112 266.676C408.032 266.392 407.893 266.125 407.694 265.875C407.501 265.625 407.239 265.424 406.91 265.27C406.58 265.117 406.177 265.04 405.7 265.04C405.058 265.04 404.518 265.179 404.08 265.458C403.648 265.736 403.435 266.097 403.441 266.54C403.435 266.921 403.575 267.23 403.859 267.469C404.148 267.708 404.626 267.904 405.29 268.057L407.523 268.534C408.762 268.801 409.683 269.225 410.285 269.804C410.893 270.384 411.2 271.142 411.205 272.08C411.2 272.904 410.958 273.631 410.481 274.262C410.009 274.887 409.353 275.375 408.512 275.728C407.671 276.08 406.705 276.256 405.614 276.256C404.012 276.256 402.722 275.921 401.745 275.25C400.768 274.574 400.185 273.634 399.998 272.429L403.006 272.139C403.143 272.73 403.433 273.176 403.876 273.478C404.319 273.779 404.896 273.929 405.606 273.929C406.339 273.929 406.927 273.779 407.37 273.478C407.819 273.176 408.043 272.804 408.043 272.361C408.043 271.986 407.898 271.676 407.609 271.432C407.325 271.188 406.881 271 406.279 270.87L404.046 270.401C402.79 270.139 401.862 269.699 401.259 269.08C400.657 268.455 400.359 267.665 400.364 266.71C400.359 265.904 400.577 265.205 401.021 264.614C401.469 264.017 402.092 263.557 402.887 263.233C403.688 262.904 404.612 262.739 405.657 262.739C407.191 262.739 408.398 263.066 409.279 263.719C410.165 264.372 410.714 265.256 410.924 266.37ZM420.286 262.909V265.296H412.761V262.909H420.286ZM414.619 259.773H417.704V272.063C417.704 272.478 417.766 272.796 417.891 273.017C418.022 273.233 418.192 273.381 418.403 273.46C418.613 273.54 418.846 273.58 419.102 273.58C419.295 273.58 419.471 273.566 419.63 273.537C419.795 273.509 419.92 273.483 420.005 273.46L420.525 275.872C420.36 275.929 420.124 275.992 419.817 276.06C419.516 276.128 419.147 276.168 418.71 276.179C417.937 276.202 417.241 276.085 416.621 275.83C416.002 275.568 415.511 275.165 415.147 274.62C414.789 274.074 414.613 273.392 414.619 272.574V259.773ZM430.737 280.909C430.317 280.909 429.928 280.875 429.57 280.807C429.217 280.745 428.936 280.671 428.726 280.585L429.442 278.182C429.891 278.313 430.291 278.375 430.643 278.37C430.996 278.364 431.305 278.253 431.572 278.037C431.845 277.827 432.075 277.475 432.263 276.98L432.527 276.273L427.78 262.909H431.053L434.07 272.796H434.206L437.232 262.909H440.513L435.271 277.585C435.027 278.279 434.703 278.872 434.3 279.367C433.896 279.867 433.402 280.247 432.817 280.509C432.237 280.776 431.544 280.909 430.737 280.909ZM447.998 276.256C446.685 276.256 445.552 275.983 444.597 275.438C443.648 274.887 442.918 274.108 442.407 273.103C441.896 272.091 441.64 270.901 441.64 269.531C441.64 268.185 441.896 267.003 442.407 265.986C442.924 264.963 443.646 264.168 444.572 263.6C445.498 263.026 446.586 262.739 447.836 262.739C448.643 262.739 449.404 262.87 450.12 263.131C450.842 263.387 451.478 263.784 452.029 264.324C452.586 264.864 453.023 265.551 453.342 266.387C453.66 267.216 453.819 268.205 453.819 269.353V270.299H443.089V268.219H450.862C450.856 267.628 450.728 267.103 450.478 266.642C450.228 266.176 449.879 265.81 449.43 265.543C448.987 265.276 448.469 265.142 447.879 265.142C447.248 265.142 446.694 265.296 446.217 265.603C445.739 265.904 445.367 266.301 445.1 266.796C444.839 267.284 444.705 267.821 444.7 268.406V270.222C444.7 270.983 444.839 271.637 445.117 272.182C445.396 272.722 445.785 273.137 446.285 273.426C446.785 273.71 447.37 273.853 448.04 273.853C448.489 273.853 448.896 273.79 449.259 273.665C449.623 273.534 449.938 273.344 450.205 273.094C450.472 272.844 450.674 272.534 450.81 272.165L453.691 272.489C453.509 273.25 453.163 273.915 452.651 274.483C452.146 275.046 451.498 275.483 450.708 275.796C449.918 276.103 449.015 276.256 447.998 276.256ZM460.196 276.264C459.366 276.264 458.619 276.117 457.955 275.821C457.295 275.52 456.773 275.077 456.386 274.492C456.006 273.906 455.815 273.185 455.815 272.327C455.815 271.588 455.952 270.978 456.224 270.495C456.497 270.012 456.869 269.625 457.341 269.335C457.813 269.046 458.344 268.827 458.935 268.679C459.531 268.526 460.148 268.415 460.784 268.347C461.551 268.267 462.173 268.196 462.651 268.134C463.128 268.066 463.474 267.963 463.69 267.827C463.912 267.685 464.023 267.466 464.023 267.171V267.12C464.023 266.478 463.832 265.98 463.452 265.628C463.071 265.276 462.523 265.1 461.807 265.1C461.051 265.1 460.452 265.264 460.009 265.594C459.571 265.924 459.276 266.313 459.122 266.762L456.241 266.353C456.469 265.557 456.844 264.892 457.366 264.358C457.889 263.818 458.528 263.415 459.284 263.148C460.04 262.875 460.875 262.739 461.79 262.739C462.42 262.739 463.048 262.813 463.673 262.96C464.298 263.108 464.869 263.353 465.386 263.693C465.903 264.029 466.318 264.486 466.631 265.066C466.949 265.645 467.108 266.37 467.108 267.239V276H464.142V274.202H464.04C463.852 274.566 463.588 274.906 463.247 275.225C462.912 275.537 462.489 275.79 461.977 275.983C461.472 276.171 460.878 276.264 460.196 276.264ZM460.997 273.997C461.616 273.997 462.153 273.875 462.608 273.631C463.063 273.381 463.412 273.051 463.656 272.642C463.906 272.233 464.031 271.787 464.031 271.304V269.762C463.935 269.841 463.77 269.915 463.537 269.983C463.31 270.051 463.054 270.111 462.77 270.162C462.486 270.213 462.205 270.259 461.926 270.299C461.648 270.338 461.406 270.372 461.202 270.401C460.741 270.463 460.33 270.566 459.966 270.708C459.602 270.85 459.315 271.049 459.105 271.304C458.895 271.554 458.79 271.878 458.79 272.276C458.79 272.844 458.997 273.273 459.412 273.563C459.827 273.853 460.355 273.997 460.997 273.997ZM470.21 276V262.909H473.202V265.091H473.338C473.577 264.335 473.986 263.753 474.565 263.344C475.151 262.929 475.818 262.722 476.568 262.722C476.739 262.722 476.929 262.73 477.139 262.747C477.355 262.759 477.534 262.779 477.676 262.807V265.645C477.545 265.6 477.338 265.56 477.054 265.526C476.776 265.486 476.506 265.466 476.244 265.466C475.682 265.466 475.176 265.588 474.727 265.833C474.284 266.071 473.935 266.404 473.679 266.83C473.423 267.256 473.295 267.747 473.295 268.304V276H470.21Z" fill="#2C69A1"/>
<path d="M778.396 229.546H781.558V240.949C781.558 242.199 781.263 243.299 780.672 244.247C780.087 245.196 779.263 245.938 778.2 246.472C777.138 247 775.896 247.264 774.476 247.264C773.05 247.264 771.805 247 770.743 246.472C769.68 245.938 768.857 245.196 768.271 244.247C767.686 243.299 767.393 242.199 767.393 240.949V229.546H770.555V240.685C770.555 241.412 770.714 242.06 771.033 242.628C771.357 243.196 771.811 243.642 772.396 243.966C772.982 244.284 773.675 244.443 774.476 244.443C775.277 244.443 775.97 244.284 776.555 243.966C777.146 243.642 777.601 243.196 777.919 242.628C778.237 242.06 778.396 241.412 778.396 240.685V229.546ZM785.939 247.188C785.422 247.188 784.979 247.006 784.609 246.642C784.24 246.279 784.058 245.835 784.064 245.313C784.058 244.801 784.24 244.364 784.609 244C784.979 243.637 785.422 243.455 785.939 243.455C786.439 243.455 786.874 243.637 787.243 244C787.618 244.364 787.808 244.801 787.814 245.313C787.808 245.659 787.717 245.975 787.541 246.259C787.371 246.543 787.143 246.77 786.859 246.941C786.581 247.105 786.274 247.188 785.939 247.188ZM800.621 234.344C800.542 233.6 800.207 233.02 799.616 232.605C799.031 232.191 798.269 231.983 797.332 231.983C796.673 231.983 796.107 232.083 795.636 232.281C795.164 232.48 794.803 232.75 794.553 233.091C794.303 233.432 794.175 233.821 794.17 234.259C794.17 234.622 794.252 234.938 794.417 235.205C794.587 235.472 794.817 235.699 795.107 235.887C795.397 236.068 795.718 236.222 796.07 236.347C796.423 236.472 796.778 236.577 797.136 236.662L798.772 237.071C799.431 237.225 800.065 237.432 800.673 237.693C801.286 237.955 801.835 238.284 802.317 238.682C802.806 239.08 803.192 239.56 803.477 240.122C803.761 240.685 803.903 241.344 803.903 242.1C803.903 243.122 803.641 244.023 803.119 244.801C802.596 245.574 801.84 246.179 800.852 246.617C799.869 247.049 798.678 247.264 797.281 247.264C795.923 247.264 794.744 247.054 793.744 246.634C792.749 246.213 791.971 245.6 791.408 244.793C790.852 243.986 790.55 243.003 790.505 241.844H793.616C793.661 242.452 793.849 242.958 794.178 243.361C794.508 243.764 794.937 244.066 795.465 244.264C795.999 244.463 796.596 244.563 797.255 244.563C797.942 244.563 798.545 244.46 799.062 244.256C799.585 244.046 799.994 243.756 800.289 243.387C800.585 243.012 800.735 242.574 800.741 242.074C800.735 241.62 800.602 241.245 800.34 240.949C800.079 240.648 799.712 240.398 799.241 240.199C798.775 239.995 798.229 239.813 797.604 239.654L795.619 239.142C794.181 238.773 793.045 238.213 792.21 237.463C791.38 236.708 790.965 235.705 790.965 234.455C790.965 233.426 791.244 232.526 791.8 231.753C792.363 230.98 793.127 230.381 794.093 229.955C795.059 229.523 796.153 229.307 797.374 229.307C798.613 229.307 799.698 229.523 800.63 229.955C801.567 230.381 802.303 230.975 802.837 231.736C803.371 232.492 803.647 233.361 803.664 234.344H800.621ZM814.916 247H811.541L817.686 229.546H821.589L827.743 247H824.368L819.706 233.125H819.57L814.916 247ZM815.027 240.156H824.232V242.696H815.027V240.156ZM834.365 247.23C833.337 247.23 832.416 246.966 831.604 246.438C830.791 245.909 830.149 245.142 829.678 244.137C829.206 243.131 828.97 241.909 828.97 240.472C828.97 239.017 829.209 237.79 829.686 236.79C830.169 235.784 830.82 235.026 831.638 234.514C832.456 233.997 833.368 233.739 834.374 233.739C835.141 233.739 835.771 233.87 836.266 234.131C836.76 234.387 837.152 234.696 837.442 235.06C837.732 235.418 837.956 235.756 838.115 236.074H838.243V229.546H841.337V247H838.303V244.938H838.115C837.956 245.256 837.726 245.594 837.425 245.952C837.124 246.304 836.726 246.605 836.232 246.855C835.737 247.105 835.115 247.23 834.365 247.23ZM835.226 244.699C835.879 244.699 836.436 244.523 836.896 244.171C837.357 243.813 837.706 243.316 837.945 242.679C838.183 242.043 838.303 241.301 838.303 240.455C838.303 239.608 838.183 238.872 837.945 238.247C837.712 237.622 837.365 237.137 836.905 236.79C836.45 236.443 835.891 236.27 835.226 236.27C834.538 236.27 833.964 236.449 833.504 236.807C833.044 237.165 832.697 237.659 832.464 238.29C832.232 238.921 832.115 239.642 832.115 240.455C832.115 241.273 832.232 242.003 832.464 242.645C832.703 243.281 833.053 243.784 833.513 244.154C833.979 244.517 834.55 244.699 835.226 244.699ZM852.968 241.495V233.909H856.053V247H853.062V244.674H852.925C852.63 245.406 852.144 246.006 851.468 246.472C850.798 246.938 849.971 247.171 848.988 247.171C848.13 247.171 847.371 246.98 846.712 246.6C846.059 246.213 845.548 245.654 845.178 244.921C844.809 244.182 844.624 243.29 844.624 242.245V233.909H847.71V241.767C847.71 242.597 847.937 243.256 848.391 243.745C848.846 244.233 849.442 244.478 850.181 244.478C850.636 244.478 851.076 244.367 851.502 244.145C851.928 243.924 852.278 243.594 852.55 243.156C852.829 242.713 852.968 242.159 852.968 241.495ZM862.311 229.546V247H859.226V229.546H862.311ZM872.021 233.909V236.296H864.495V233.909H872.021ZM866.353 230.773H869.438V243.063C869.438 243.478 869.501 243.796 869.626 244.017C869.756 244.233 869.927 244.381 870.137 244.46C870.347 244.54 870.58 244.58 870.836 244.58C871.029 244.58 871.205 244.566 871.364 244.537C871.529 244.509 871.654 244.483 871.739 244.46L872.259 246.872C872.094 246.929 871.859 246.992 871.552 247.06C871.251 247.128 870.881 247.168 870.444 247.179C869.671 247.202 868.975 247.085 868.356 246.83C867.737 246.568 867.245 246.165 866.881 245.62C866.523 245.074 866.347 244.392 866.353 243.574V230.773ZM884.76 237.37L881.947 237.676C881.868 237.392 881.729 237.125 881.53 236.875C881.337 236.625 881.075 236.424 880.746 236.27C880.416 236.117 880.013 236.04 879.536 236.04C878.893 236.04 878.354 236.179 877.916 236.458C877.484 236.736 877.271 237.097 877.277 237.54C877.271 237.921 877.411 238.23 877.695 238.469C877.984 238.708 878.462 238.904 879.126 239.057L881.359 239.534C882.598 239.801 883.518 240.225 884.121 240.804C884.729 241.384 885.036 242.142 885.041 243.08C885.036 243.904 884.794 244.631 884.317 245.262C883.845 245.887 883.189 246.375 882.348 246.728C881.507 247.08 880.541 247.256 879.45 247.256C877.848 247.256 876.558 246.921 875.581 246.25C874.604 245.574 874.021 244.634 873.834 243.429L876.842 243.139C876.979 243.73 877.268 244.176 877.712 244.478C878.155 244.779 878.732 244.929 879.442 244.929C880.175 244.929 880.763 244.779 881.206 244.478C881.655 244.176 881.879 243.804 881.879 243.361C881.879 242.986 881.734 242.676 881.445 242.432C881.161 242.188 880.717 242 880.115 241.87L877.882 241.401C876.626 241.139 875.697 240.699 875.095 240.08C874.493 239.455 874.195 238.665 874.2 237.71C874.195 236.904 874.413 236.205 874.857 235.614C875.305 235.017 875.928 234.557 876.723 234.233C877.524 233.904 878.447 233.739 879.493 233.739C881.027 233.739 882.234 234.066 883.115 234.719C884.001 235.372 884.55 236.256 884.76 237.37ZM899.334 247.256C898.021 247.256 896.888 246.983 895.933 246.438C894.984 245.887 894.254 245.108 893.743 244.103C893.232 243.091 892.976 241.901 892.976 240.531C892.976 239.185 893.232 238.003 893.743 236.986C894.26 235.963 894.982 235.168 895.908 234.6C896.834 234.026 897.922 233.739 899.172 233.739C899.979 233.739 900.74 233.87 901.456 234.131C902.178 234.387 902.814 234.784 903.365 235.324C903.922 235.864 904.359 236.551 904.678 237.387C904.996 238.216 905.155 239.205 905.155 240.353V241.299H894.425V239.219H902.197C902.192 238.628 902.064 238.103 901.814 237.642C901.564 237.176 901.214 236.81 900.766 236.543C900.322 236.276 899.805 236.142 899.214 236.142C898.584 236.142 898.03 236.296 897.553 236.603C897.075 236.904 896.703 237.301 896.436 237.796C896.175 238.284 896.041 238.821 896.036 239.406V241.222C896.036 241.983 896.175 242.637 896.453 243.182C896.732 243.722 897.121 244.137 897.621 244.426C898.121 244.71 898.706 244.853 899.376 244.853C899.825 244.853 900.232 244.79 900.595 244.665C900.959 244.534 901.274 244.344 901.541 244.094C901.808 243.844 902.01 243.534 902.146 243.165L905.027 243.489C904.845 244.25 904.499 244.915 903.987 245.483C903.482 246.046 902.834 246.483 902.044 246.796C901.254 247.103 900.351 247.256 899.334 247.256ZM910.006 233.909L912.648 238.742L915.333 233.909H918.597L914.651 240.455L918.665 247H915.418L912.648 242.287L909.904 247H906.631L910.62 240.455L906.734 233.909H910.006ZM920.984 251.909V233.909H924.018V236.074H924.197C924.356 235.756 924.58 235.418 924.87 235.06C925.16 234.696 925.552 234.387 926.046 234.131C926.54 233.87 927.171 233.739 927.938 233.739C928.95 233.739 929.862 233.997 930.674 234.514C931.492 235.026 932.14 235.784 932.617 236.79C933.1 237.79 933.342 239.017 933.342 240.472C933.342 241.909 933.106 243.131 932.634 244.137C932.163 245.142 931.521 245.909 930.708 246.438C929.896 246.966 928.975 247.23 927.947 247.23C927.197 247.23 926.575 247.105 926.08 246.855C925.586 246.605 925.188 246.304 924.887 245.952C924.592 245.594 924.362 245.256 924.197 244.938H924.069V251.909H920.984ZM924.009 240.455C924.009 241.301 924.129 242.043 924.367 242.679C924.612 243.316 924.961 243.813 925.415 244.171C925.876 244.523 926.433 244.699 927.086 244.699C927.768 244.699 928.339 244.517 928.799 244.154C929.259 243.784 929.606 243.281 929.839 242.645C930.077 242.003 930.197 241.273 930.197 240.455C930.197 239.642 930.08 238.921 929.847 238.29C929.614 237.659 929.268 237.165 928.808 236.807C928.347 236.449 927.773 236.27 927.086 236.27C926.427 236.27 925.867 236.443 925.407 236.79C924.947 237.137 924.597 237.622 924.359 238.247C924.126 238.872 924.009 239.608 924.009 240.455ZM941.779 247.256C940.467 247.256 939.333 246.983 938.379 246.438C937.43 245.887 936.7 245.108 936.188 244.103C935.677 243.091 935.421 241.901 935.421 240.531C935.421 239.185 935.677 238.003 936.188 236.986C936.705 235.963 937.427 235.168 938.353 234.6C939.279 234.026 940.367 233.739 941.617 233.739C942.424 233.739 943.185 233.87 943.901 234.131C944.623 234.387 945.259 234.784 945.81 235.324C946.367 235.864 946.805 236.551 947.123 237.387C947.441 238.216 947.6 239.205 947.6 240.353V241.299H936.87V239.219H944.643C944.637 238.628 944.509 238.103 944.259 237.642C944.009 237.176 943.66 236.81 943.211 236.543C942.768 236.276 942.251 236.142 941.66 236.142C941.029 236.142 940.475 236.296 939.998 236.603C939.521 236.904 939.148 237.301 938.881 237.796C938.62 238.284 938.487 238.821 938.481 239.406V241.222C938.481 241.983 938.62 242.637 938.898 243.182C939.177 243.722 939.566 244.137 940.066 244.426C940.566 244.71 941.151 244.853 941.822 244.853C942.271 244.853 942.677 244.79 943.04 244.665C943.404 244.534 943.719 244.344 943.987 244.094C944.254 243.844 944.455 243.534 944.592 243.165L947.472 243.489C947.29 244.25 946.944 244.915 946.433 245.483C945.927 246.046 945.279 246.483 944.489 246.796C943.7 247.103 942.796 247.256 941.779 247.256ZM950.21 247V233.909H953.202V236.091H953.338C953.577 235.335 953.986 234.753 954.565 234.344C955.151 233.929 955.818 233.722 956.568 233.722C956.739 233.722 956.929 233.73 957.139 233.747C957.355 233.759 957.534 233.779 957.676 233.807V236.645C957.545 236.6 957.338 236.56 957.054 236.526C956.776 236.486 956.506 236.466 956.244 236.466C955.682 236.466 955.176 236.588 954.727 236.833C954.284 237.071 953.935 237.404 953.679 237.83C953.423 238.256 953.295 238.747 953.295 239.304V247H950.21ZM959.726 247V233.909H962.811V247H959.726ZM961.277 232.051C960.788 232.051 960.368 231.889 960.016 231.566C959.663 231.236 959.487 230.841 959.487 230.381C959.487 229.915 959.663 229.52 960.016 229.196C960.368 228.867 960.788 228.702 961.277 228.702C961.771 228.702 962.192 228.867 962.538 229.196C962.891 229.52 963.067 229.915 963.067 230.381C963.067 230.841 962.891 231.236 962.538 231.566C962.192 231.889 961.771 232.051 961.277 232.051ZM971.779 247.256C970.467 247.256 969.333 246.983 968.379 246.438C967.43 245.887 966.7 245.108 966.188 244.103C965.677 243.091 965.421 241.901 965.421 240.531C965.421 239.185 965.677 238.003 966.188 236.986C966.705 235.963 967.427 235.168 968.353 234.6C969.279 234.026 970.367 233.739 971.617 233.739C972.424 233.739 973.185 233.87 973.901 234.131C974.623 234.387 975.259 234.784 975.81 235.324C976.367 235.864 976.805 236.551 977.123 237.387C977.441 238.216 977.6 239.205 977.6 240.353V241.299H966.87V239.219H974.643C974.637 238.628 974.509 238.103 974.259 237.642C974.009 237.176 973.66 236.81 973.211 236.543C972.768 236.276 972.251 236.142 971.66 236.142C971.029 236.142 970.475 236.296 969.998 236.603C969.521 236.904 969.148 237.301 968.881 237.796C968.62 238.284 968.487 238.821 968.481 239.406V241.222C968.481 241.983 968.62 242.637 968.898 243.182C969.177 243.722 969.566 244.137 970.066 244.426C970.566 244.71 971.151 244.853 971.822 244.853C972.271 244.853 972.677 244.79 973.04 244.665C973.404 244.534 973.719 244.344 973.987 244.094C974.254 243.844 974.455 243.534 974.592 243.165L977.472 243.489C977.29 244.25 976.944 244.915 976.433 245.483C975.927 246.046 975.279 246.483 974.489 246.796C973.7 247.103 972.796 247.256 971.779 247.256ZM983.295 239.33V247H980.21V233.909H983.159V236.134H983.312C983.614 235.401 984.094 234.818 984.753 234.387C985.418 233.955 986.239 233.739 987.216 233.739C988.119 233.739 988.906 233.932 989.577 234.318C990.253 234.705 990.776 235.264 991.145 235.997C991.52 236.73 991.705 237.62 991.699 238.665V247H988.614V239.142C988.614 238.267 988.386 237.583 987.932 237.088C987.483 236.594 986.861 236.347 986.065 236.347C985.526 236.347 985.045 236.466 984.625 236.705C984.21 236.938 983.884 237.276 983.645 237.719C983.412 238.162 983.295 238.699 983.295 239.33ZM1000.55 247.256C999.239 247.256 998.116 246.969 997.179 246.395C996.247 245.821 995.528 245.029 995.023 244.017C994.523 243 994.273 241.83 994.273 240.506C994.273 239.176 994.528 238.003 995.04 236.986C995.551 235.963 996.273 235.168 997.205 234.6C998.142 234.026 999.25 233.739 1000.53 233.739C1001.59 233.739 1002.53 233.935 1003.35 234.327C1004.17 234.713 1004.83 235.262 1005.32 235.972C1005.81 236.676 1006.09 237.5 1006.15 238.443H1003.2C1003.09 237.813 1002.8 237.287 1002.35 236.867C1001.91 236.441 1001.32 236.228 1000.57 236.228C999.94 236.228 999.386 236.398 998.909 236.739C998.432 237.074 998.06 237.557 997.793 238.188C997.531 238.818 997.401 239.574 997.401 240.455C997.401 241.347 997.531 242.114 997.793 242.756C998.054 243.392 998.42 243.884 998.892 244.23C999.369 244.571 999.929 244.742 1000.57 244.742C1001.03 244.742 1001.43 244.656 1001.79 244.486C1002.15 244.31 1002.46 244.057 1002.7 243.728C1002.95 243.398 1003.11 242.997 1003.2 242.526H1006.15C1006.08 243.452 1005.81 244.273 1005.34 244.989C1004.86 245.699 1004.22 246.256 1003.41 246.659C1002.6 247.057 1001.64 247.256 1000.55 247.256ZM1014.48 247.256C1013.17 247.256 1012.04 246.983 1011.08 246.438C1010.13 245.887 1009.4 245.108 1008.89 244.103C1008.38 243.091 1008.12 241.901 1008.12 240.531C1008.12 239.185 1008.38 238.003 1008.89 236.986C1009.41 235.963 1010.13 235.168 1011.06 234.6C1011.98 234.026 1013.07 233.739 1014.32 233.739C1015.13 233.739 1015.89 233.87 1016.6 234.131C1017.33 234.387 1017.96 234.784 1018.51 235.324C1019.07 235.864 1019.51 236.551 1019.83 237.387C1020.14 238.216 1020.3 239.205 1020.3 240.353V241.299H1009.57V239.219H1017.35C1017.34 238.628 1017.21 238.103 1016.96 237.642C1016.71 237.176 1016.36 236.81 1015.91 236.543C1015.47 236.276 1014.95 236.142 1014.36 236.142C1013.73 236.142 1013.18 236.296 1012.7 236.603C1012.22 236.904 1011.85 237.301 1011.58 237.796C1011.32 238.284 1011.19 238.821 1011.18 239.406V241.222C1011.18 241.983 1011.32 242.637 1011.6 243.182C1011.88 243.722 1012.27 244.137 1012.77 244.426C1013.27 244.71 1013.85 244.853 1014.52 244.853C1014.97 244.853 1015.38 244.79 1015.74 244.665C1016.11 244.534 1016.42 244.344 1016.69 244.094C1016.96 243.844 1017.16 243.534 1017.29 243.165L1020.18 243.489C1019.99 244.25 1019.65 244.915 1019.14 245.483C1018.63 246.046 1017.98 246.483 1017.19 246.796C1016.4 247.103 1015.5 247.256 1014.48 247.256ZM766.625 263.344C766.546 262.6 766.211 262.02 765.62 261.605C765.034 261.191 764.273 260.983 763.336 260.983C762.676 260.983 762.111 261.083 761.64 261.281C761.168 261.48 760.807 261.75 760.557 262.091C760.307 262.432 760.179 262.821 760.174 263.259C760.174 263.622 760.256 263.938 760.421 264.205C760.591 264.472 760.821 264.699 761.111 264.887C761.401 265.068 761.722 265.222 762.074 265.347C762.426 265.472 762.782 265.577 763.14 265.662L764.776 266.071C765.435 266.225 766.069 266.432 766.676 266.693C767.29 266.955 767.838 267.284 768.321 267.682C768.81 268.08 769.196 268.56 769.48 269.122C769.765 269.685 769.907 270.344 769.907 271.1C769.907 272.122 769.645 273.023 769.123 273.801C768.6 274.574 767.844 275.179 766.855 275.617C765.873 276.049 764.682 276.264 763.284 276.264C761.926 276.264 760.748 276.054 759.748 275.634C758.753 275.213 757.975 274.6 757.412 273.793C756.855 272.986 756.554 272.003 756.509 270.844H759.62C759.665 271.452 759.853 271.958 760.182 272.361C760.512 272.764 760.941 273.066 761.469 273.264C762.003 273.463 762.6 273.563 763.259 273.563C763.946 273.563 764.549 273.46 765.066 273.256C765.588 273.046 765.998 272.756 766.293 272.387C766.588 272.012 766.739 271.574 766.745 271.074C766.739 270.62 766.605 270.245 766.344 269.949C766.083 269.648 765.716 269.398 765.245 269.199C764.779 268.995 764.233 268.813 763.608 268.654L761.623 268.142C760.185 267.773 759.049 267.213 758.213 266.463C757.384 265.708 756.969 264.705 756.969 263.455C756.969 262.426 757.248 261.526 757.804 260.753C758.367 259.98 759.131 259.381 760.097 258.955C761.063 258.523 762.157 258.307 763.378 258.307C764.617 258.307 765.702 258.523 766.634 258.955C767.571 259.381 768.307 259.975 768.841 260.736C769.375 261.492 769.651 262.361 769.668 263.344H766.625ZM774.49 276.188C773.973 276.188 773.529 276.006 773.16 275.642C772.791 275.279 772.609 274.835 772.615 274.313C772.609 273.801 772.791 273.364 773.16 273C773.529 272.637 773.973 272.455 774.49 272.455C774.99 272.455 775.424 272.637 775.794 273C776.169 273.364 776.359 273.801 776.365 274.313C776.359 274.659 776.268 274.975 776.092 275.259C775.922 275.543 775.694 275.77 775.41 275.941C775.132 276.105 774.825 276.188 774.49 276.188ZM781.928 276H778.553L784.698 258.546H788.601L794.755 276H791.38L786.718 262.125H786.581L781.928 276ZM782.039 269.156H791.243V271.696H782.039V269.156ZM798.818 276.188C798.301 276.188 797.858 276.006 797.488 275.642C797.119 275.279 796.937 274.835 796.943 274.313C796.937 273.801 797.119 273.364 797.488 273C797.858 272.637 798.301 272.455 798.818 272.455C799.318 272.455 799.752 272.637 800.122 273C800.497 273.364 800.687 273.801 800.693 274.313C800.687 274.659 800.596 274.975 800.42 275.259C800.25 275.543 800.022 275.77 799.738 275.941C799.46 276.105 799.153 276.188 798.818 276.188ZM809.929 276H804.015V258.546H810.049C811.782 258.546 813.27 258.895 814.515 259.594C815.765 260.287 816.725 261.284 817.395 262.585C818.066 263.887 818.401 265.443 818.401 267.256C818.401 269.074 818.063 270.637 817.387 271.943C816.716 273.25 815.748 274.253 814.48 274.952C813.219 275.651 811.702 276 809.929 276ZM807.176 273.264H809.776C810.992 273.264 812.006 273.043 812.819 272.6C813.631 272.151 814.242 271.483 814.651 270.597C815.06 269.705 815.265 268.591 815.265 267.256C815.265 265.921 815.06 264.813 814.651 263.932C814.242 263.046 813.637 262.384 812.836 261.946C812.04 261.503 811.051 261.281 809.87 261.281H807.176V273.264ZM830.989 276.264C830.159 276.264 829.412 276.117 828.748 275.821C828.088 275.52 827.566 275.077 827.179 274.492C826.799 273.906 826.608 273.185 826.608 272.327C826.608 271.588 826.745 270.978 827.017 270.495C827.29 270.012 827.662 269.625 828.134 269.335C828.605 269.046 829.137 268.827 829.728 268.679C830.324 268.526 830.941 268.415 831.577 268.347C832.344 268.267 832.966 268.196 833.444 268.134C833.921 268.066 834.267 267.963 834.483 267.827C834.705 267.685 834.816 267.466 834.816 267.171V267.12C834.816 266.478 834.625 265.98 834.245 265.628C833.864 265.276 833.316 265.1 832.6 265.1C831.844 265.1 831.245 265.264 830.801 265.594C830.364 265.924 830.069 266.313 829.915 266.762L827.034 266.353C827.262 265.557 827.637 264.892 828.159 264.358C828.682 263.818 829.321 263.415 830.077 263.148C830.833 262.875 831.668 262.739 832.583 262.739C833.213 262.739 833.841 262.813 834.466 262.96C835.091 263.108 835.662 263.353 836.179 263.693C836.696 264.029 837.111 264.486 837.424 265.066C837.742 265.645 837.901 266.37 837.901 267.239V276H834.935V274.202H834.833C834.645 274.566 834.381 274.906 834.04 275.225C833.705 275.537 833.282 275.79 832.77 275.983C832.265 276.171 831.671 276.264 830.989 276.264ZM831.79 273.997C832.409 273.997 832.946 273.875 833.401 273.631C833.855 273.381 834.205 273.051 834.449 272.642C834.699 272.233 834.824 271.787 834.824 271.304V269.762C834.728 269.841 834.563 269.915 834.33 269.983C834.103 270.051 833.847 270.111 833.563 270.162C833.279 270.213 832.998 270.259 832.719 270.299C832.441 270.338 832.199 270.372 831.995 270.401C831.534 270.463 831.123 270.566 830.759 270.708C830.395 270.85 830.108 271.049 829.898 271.304C829.688 271.554 829.583 271.878 829.583 272.276C829.583 272.844 829.79 273.273 830.205 273.563C830.62 273.853 831.148 273.997 831.79 273.997ZM847.54 262.909V265.296H840.015V262.909H847.54ZM841.873 259.773H844.958V272.063C844.958 272.478 845.02 272.796 845.145 273.017C845.276 273.233 845.446 273.381 845.657 273.46C845.867 273.54 846.1 273.58 846.355 273.58C846.549 273.58 846.725 273.566 846.884 273.537C847.049 273.509 847.174 273.483 847.259 273.46L847.779 275.872C847.614 275.929 847.378 275.992 847.071 276.06C846.77 276.128 846.401 276.168 845.963 276.179C845.191 276.202 844.495 276.085 843.875 275.83C843.256 275.568 842.765 275.165 842.401 274.62C842.043 274.074 841.867 273.392 841.873 272.574V259.773ZM861.784 276.256C860.505 276.256 859.397 275.975 858.46 275.412C857.522 274.85 856.795 274.063 856.278 273.051C855.767 272.04 855.511 270.858 855.511 269.506C855.511 268.154 855.767 266.969 856.278 265.952C856.795 264.935 857.522 264.145 858.46 263.583C859.397 263.02 860.505 262.739 861.784 262.739C863.062 262.739 864.17 263.02 865.108 263.583C866.045 264.145 866.77 264.935 867.281 265.952C867.798 266.969 868.056 268.154 868.056 269.506C868.056 270.858 867.798 272.04 867.281 273.051C866.77 274.063 866.045 274.85 865.108 275.412C864.17 275.975 863.062 276.256 861.784 276.256ZM861.801 273.784C862.494 273.784 863.074 273.594 863.539 273.213C864.005 272.827 864.352 272.31 864.579 271.662C864.812 271.014 864.929 270.293 864.929 269.497C864.929 268.696 864.812 267.972 864.579 267.324C864.352 266.671 864.005 266.151 863.539 265.764C863.074 265.378 862.494 265.185 861.801 265.185C861.091 265.185 860.5 265.378 860.028 265.764C859.562 266.151 859.213 266.671 858.98 267.324C858.752 267.972 858.639 268.696 858.639 269.497C858.639 270.293 858.752 271.014 858.98 271.662C859.213 272.31 859.562 272.827 860.028 273.213C860.5 273.594 861.091 273.784 861.801 273.784ZM873.76 268.33V276H870.675V262.909H873.624V265.134H873.777C874.078 264.401 874.559 263.818 875.218 263.387C875.882 262.955 876.703 262.739 877.681 262.739C878.584 262.739 879.371 262.932 880.042 263.318C880.718 263.705 881.24 264.264 881.61 264.997C881.985 265.73 882.169 266.62 882.164 267.665V276H879.078V268.142C879.078 267.267 878.851 266.583 878.397 266.088C877.948 265.594 877.326 265.347 876.53 265.347C875.99 265.347 875.51 265.466 875.09 265.705C874.675 265.938 874.348 266.276 874.11 266.719C873.877 267.162 873.76 267.699 873.76 268.33ZM891.096 276.256C889.783 276.256 888.65 275.983 887.695 275.438C886.746 274.887 886.016 274.108 885.505 273.103C884.993 272.091 884.738 270.901 884.738 269.531C884.738 268.185 884.993 267.003 885.505 265.986C886.022 264.963 886.743 264.168 887.669 263.6C888.596 263.026 889.684 262.739 890.934 262.739C891.74 262.739 892.502 262.87 893.218 263.131C893.939 263.387 894.576 263.784 895.127 264.324C895.684 264.864 896.121 265.551 896.439 266.387C896.757 267.216 896.917 268.205 896.917 269.353V270.299H886.186V268.219H893.959C893.953 267.628 893.826 267.103 893.576 266.642C893.326 266.176 892.976 265.81 892.527 265.543C892.084 265.276 891.567 265.142 890.976 265.142C890.346 265.142 889.792 265.296 889.314 265.603C888.837 265.904 888.465 266.301 888.198 266.796C887.936 267.284 887.803 267.821 887.797 268.406V270.222C887.797 270.983 887.936 271.637 888.215 272.182C888.493 272.722 888.882 273.137 889.382 273.426C889.882 273.71 890.468 273.853 891.138 273.853C891.587 273.853 891.993 273.79 892.357 273.665C892.721 273.534 893.036 273.344 893.303 273.094C893.57 272.844 893.772 272.534 893.908 272.165L896.789 272.489C896.607 273.25 896.26 273.915 895.749 274.483C895.243 275.046 894.596 275.483 893.806 275.796C893.016 276.103 892.113 276.256 891.096 276.256ZM905.48 280.909V262.909H908.514V265.074H908.693C908.852 264.756 909.076 264.418 909.366 264.06C909.656 263.696 910.048 263.387 910.542 263.131C911.037 262.87 911.667 262.739 912.434 262.739C913.446 262.739 914.358 262.997 915.17 263.514C915.988 264.026 916.636 264.784 917.113 265.79C917.596 266.79 917.838 268.017 917.838 269.472C917.838 270.909 917.602 272.131 917.13 273.137C916.659 274.142 916.017 274.909 915.204 275.438C914.392 275.966 913.471 276.23 912.443 276.23C911.693 276.23 911.071 276.105 910.576 275.855C910.082 275.605 909.684 275.304 909.383 274.952C909.088 274.594 908.858 274.256 908.693 273.938H908.565V280.909H905.48ZM908.505 269.455C908.505 270.301 908.625 271.043 908.863 271.679C909.108 272.316 909.457 272.813 909.912 273.171C910.372 273.523 910.929 273.699 911.582 273.699C912.264 273.699 912.835 273.517 913.295 273.154C913.755 272.784 914.102 272.281 914.335 271.645C914.574 271.003 914.693 270.273 914.693 269.455C914.693 268.642 914.576 267.921 914.343 267.29C914.11 266.659 913.764 266.165 913.304 265.807C912.843 265.449 912.27 265.27 911.582 265.27C910.923 265.27 910.363 265.443 909.903 265.79C909.443 266.137 909.093 266.622 908.855 267.247C908.622 267.872 908.505 268.608 908.505 269.455ZM926.19 276.256C924.912 276.256 923.804 275.975 922.866 275.412C921.929 274.85 921.201 274.063 920.684 273.051C920.173 272.04 919.917 270.858 919.917 269.506C919.917 268.154 920.173 266.969 920.684 265.952C921.201 264.935 921.929 264.145 922.866 263.583C923.804 263.02 924.912 262.739 926.19 262.739C927.468 262.739 928.576 263.02 929.514 263.583C930.451 264.145 931.176 264.935 931.687 265.952C932.204 266.969 932.463 268.154 932.463 269.506C932.463 270.858 932.204 272.04 931.687 273.051C931.176 274.063 930.451 274.85 929.514 275.412C928.576 275.975 927.468 276.256 926.19 276.256ZM926.207 273.784C926.9 273.784 927.48 273.594 927.946 273.213C928.412 272.827 928.758 272.31 928.985 271.662C929.218 271.014 929.335 270.293 929.335 269.497C929.335 268.696 929.218 267.972 928.985 267.324C928.758 266.671 928.412 266.151 927.946 265.764C927.48 265.378 926.9 265.185 926.207 265.185C925.497 265.185 924.906 265.378 924.434 265.764C923.968 266.151 923.619 266.671 923.386 267.324C923.159 267.972 923.045 268.696 923.045 269.497C923.045 270.293 923.159 271.014 923.386 271.662C923.619 272.31 923.968 272.827 924.434 273.213C924.906 273.594 925.497 273.784 926.207 273.784ZM935.081 276V262.909H938.167V276H935.081ZM936.632 261.051C936.144 261.051 935.723 260.889 935.371 260.566C935.019 260.236 934.843 259.841 934.843 259.381C934.843 258.915 935.019 258.52 935.371 258.196C935.723 257.867 936.144 257.702 936.632 257.702C937.127 257.702 937.547 257.867 937.894 258.196C938.246 258.52 938.422 258.915 938.422 259.381C938.422 259.841 938.246 260.236 937.894 260.566C937.547 260.889 937.127 261.051 936.632 261.051ZM944.424 268.33V276H941.339V262.909H944.288V265.134H944.441C944.743 264.401 945.223 263.818 945.882 263.387C946.547 262.955 947.368 262.739 948.345 262.739C949.248 262.739 950.035 262.932 950.706 263.318C951.382 263.705 951.904 264.264 952.274 264.997C952.649 265.73 952.833 266.62 952.828 267.665V276H949.743V268.142C949.743 267.267 949.515 266.583 949.061 266.088C948.612 265.594 947.99 265.347 947.194 265.347C946.654 265.347 946.174 265.466 945.754 265.705C945.339 265.938 945.012 266.276 944.774 266.719C944.541 267.162 944.424 267.699 944.424 268.33ZM962.501 262.909V265.296H954.975V262.909H962.501ZM956.833 259.773H959.919V272.063C959.919 272.478 959.981 272.796 960.106 273.017C960.237 273.233 960.407 273.381 960.618 273.46C960.828 273.54 961.061 273.58 961.316 273.58C961.51 273.58 961.686 273.566 961.845 273.537C962.01 273.509 962.135 273.483 962.22 273.46L962.74 275.872C962.575 275.929 962.339 275.992 962.032 276.06C961.731 276.128 961.362 276.168 960.924 276.179C960.152 276.202 959.456 276.085 958.836 275.83C958.217 275.568 957.725 275.165 957.362 274.62C957.004 274.074 956.828 273.392 956.833 272.574V259.773ZM971.034 276V262.909H974.12V276H971.034ZM972.586 261.051C972.097 261.051 971.676 260.889 971.324 260.566C970.972 260.236 970.796 259.841 970.796 259.381C970.796 258.915 970.972 258.52 971.324 258.196C971.676 257.867 972.097 257.702 972.586 257.702C973.08 257.702 973.5 257.867 973.847 258.196C974.199 258.52 974.375 258.915 974.375 259.381C974.375 259.841 974.199 260.236 973.847 260.566C973.5 260.889 973.08 261.051 972.586 261.051ZM980.377 268.33V276H977.292V262.909H980.241V265.134H980.395C980.696 264.401 981.176 263.818 981.835 263.387C982.5 262.955 983.321 262.739 984.298 262.739C985.201 262.739 985.988 262.932 986.659 263.318C987.335 263.705 987.858 264.264 988.227 264.997C988.602 265.73 988.787 266.62 988.781 267.665V276H985.696V268.142C985.696 267.267 985.468 266.583 985.014 266.088C984.565 265.594 983.943 265.347 983.147 265.347C982.608 265.347 982.127 265.466 981.707 265.705C981.292 265.938 980.966 266.276 980.727 266.719C980.494 267.162 980.377 267.699 980.377 268.33ZM1000.96 258.546V276H997.87V258.546H1000.96ZM1004.13 276V262.909H1007.21V276H1004.13ZM1005.68 261.051C1005.19 261.051 1004.77 260.889 1004.42 260.566C1004.07 260.236 1003.89 259.841 1003.89 259.381C1003.89 258.915 1004.07 258.52 1004.42 258.196C1004.77 257.867 1005.19 257.702 1005.68 257.702C1006.17 257.702 1006.59 257.867 1006.94 258.196C1007.29 258.52 1007.47 258.915 1007.47 259.381C1007.47 259.841 1007.29 260.236 1006.94 260.566C1006.59 260.889 1006.17 261.051 1005.68 261.051ZM1017.02 262.909V265.296H1009.28V262.909H1017.02ZM1011.21 276V261.674C1011.21 260.793 1011.39 260.06 1011.76 259.475C1012.13 258.889 1012.62 258.452 1013.24 258.162C1013.86 257.872 1014.55 257.728 1015.3 257.728C1015.84 257.728 1016.31 257.77 1016.73 257.855C1017.14 257.941 1017.45 258.017 1017.65 258.085L1017.03 260.472C1016.9 260.432 1016.74 260.392 1016.54 260.353C1016.34 260.307 1016.12 260.284 1015.87 260.284C1015.3 260.284 1014.89 260.424 1014.66 260.702C1014.42 260.975 1014.31 261.367 1014.31 261.878V276H1011.21ZM1024.74 276.256C1023.42 276.256 1022.29 275.983 1021.34 275.438C1020.39 274.887 1019.66 274.108 1019.15 273.103C1018.63 272.091 1018.38 270.901 1018.38 269.531C1018.38 268.185 1018.63 267.003 1019.15 265.986C1019.66 264.963 1020.38 264.168 1021.31 263.6C1022.24 263.026 1023.32 262.739 1024.57 262.739C1025.38 262.739 1026.14 262.87 1026.86 263.131C1027.58 263.387 1028.22 263.784 1028.77 264.324C1029.32 264.864 1029.76 265.551 1030.08 266.387C1030.4 267.216 1030.56 268.205 1030.56 269.353V270.299H1019.83V268.219H1027.6C1027.59 267.628 1027.47 267.103 1027.22 266.642C1026.97 266.176 1026.62 265.81 1026.17 265.543C1025.72 265.276 1025.21 265.142 1024.62 265.142C1023.99 265.142 1023.43 265.296 1022.95 265.603C1022.48 265.904 1022.11 266.301 1021.84 266.796C1021.58 267.284 1021.44 267.821 1021.44 268.406V270.222C1021.44 270.983 1021.58 271.637 1021.86 272.182C1022.13 272.722 1022.52 273.137 1023.02 273.426C1023.52 273.71 1024.11 273.853 1024.78 273.853C1025.23 273.853 1025.63 273.79 1026 273.665C1026.36 273.534 1026.68 273.344 1026.94 273.094C1027.21 272.844 1027.41 272.534 1027.55 272.165L1030.43 272.489C1030.25 273.25 1029.9 273.915 1029.39 274.483C1028.88 275.046 1028.24 275.483 1027.45 275.796C1026.66 276.103 1025.75 276.256 1024.74 276.256Z" fill="#2C69A1"/>
<defs>
<filter id="filter0_d_103_2" x="179" y="45.0002" width="350" height="334" filterUnits="userSpaceOnUse" color-interpolation-filters="sRGB">
<feFlood flood-opacity="0" result="BackgroundImageFix"/>
<feColorMatrix in="SourceAlpha" type="matrix" values="0 0 0 0 0 0 0 0 0 0 0 0 0 0 0 0 0 0 127 0" result="hardAlpha"/>
<feOffset dy="4"/>
<feGaussianBlur stdDeviation="2"/>
<feComposite in2="hardAlpha" operator="out"/>
<feColorMatrix type="matrix" values="0 0 0 0 0 0 0 0 0 0 0 0 0 0 0 0 0 0 0.25 0"/>
<feBlend mode="normal" in2="BackgroundImageFix" result="effect1_dropShadow_103_2"/>
<feBlend mode="normal" in="SourceGraphic" in2="effect1_dropShadow_103_2" result="shape"/>
</filter>
<filter id="filter1_d_103_2" x="719" y="42.0002" width="350" height="334" filterUnits="userSpaceOnUse" color-interpolation-filters="sRGB">
<feFlood flood-opacity="0" result="BackgroundImageFix"/>
<feColorMatrix in="SourceAlpha" type="matrix" values="0 0 0 0 0 0 0 0 0 0 0 0 0 0 0 0 0 0 127 0" result="hardAlpha"/>
<feOffset dy="4"/>
<feGaussianBlur stdDeviation="2"/>
<feComposite in2="hardAlpha" operator="out"/>
<feColorMatrix type="matrix" values="0 0 0 0 0 0 0 0 0 0 0 0 0 0 0 0 0 0 0.25 0"/>
<feBlend mode="normal" in2="BackgroundImageFix" result="effect1_dropShadow_103_2"/>
<feBlend mode="normal" in="SourceGraphic" in2="effect1_dropShadow_103_2" result="shape"/>
</filter>
</defs>
</svg>
